<svg width="53" height="39" fill="none" xmlns="http://www.w3.org/2000/svg"><path d="M23.573 10.405l-.975-.976L50.074 0v1.626l-26.5 8.779zm7.642 7.478l-6.503-6.34 25.524-8.617v17.559c-1.04 5.332-4.986 6.015-6.828 5.69 2.731-.26 3.847-2.927 4.064-4.227.217-1.3 0-11.055 0-11.055s-.325-2.439-2.438-2.439c-2.114 0-2.602 2.439-2.602 2.439v13.33l-1.95-.487V12.518s-.65-1.625-2.114-1.625c-1.463 0-2.114 1.625-2.114 1.625v9.105l-1.463-.65v-6.016s-.487-1.463-1.788-1.463c-1.3 0-1.788 1.463-1.788 1.463v2.926z" fill="#93550D"/><path d="M0 2.276l9.755 16.583c4.292-2.472 12.518 1.788 15.12 2.764 2.6.975 7.153 3.414 10.567 4.877 3.414 1.463 8.616 1.626 10.242.975 2.926-1.625 3.902-4.227 4.39-6.015.221-.813.325-6.99.162-10.08-.162 2.818-1.203 8.714-3.414 11.706-2.211 2.991-5.528 2.24-6.828 1.788-3.74-1.3-8.422-4.7-12.356-8.454-7.153-6.828-11.055-9.43-13.656-11.055-2.602-1.626-4.39-2.439-6.503-3.252C4.097.813 1.084 1.68 0 2.276z" fill="#792F2F"/><path d="M13.564 24.856l9.522 13.024c2.439-2.6 6.503-4.877 10.405-5.365 3.902-.487 5.224-.48 7.64-1.138 2.72-.74 4.408-1.597 5.691-2.764 1.788-1.625 3.009-3.888 3.252-5.365.115-.46.244-1.596.325-2.926.146-2.42.014-5.56-.163-6.99-.325 3.25-.655 5.728-1.3 7.64-.89 2.636-2.277 4.065-2.927 4.711-.985.98-2.276 1.955-6.178 1.955s-7.64-1.807-11.38-2.782c-2.54-.663-3.902-1.282-7.641-1.611-2.888-.254-6.425 1.042-7.246 1.61z" fill="#A82C2C"/></svg>