<svg width="120" height="21" fill="none" xmlns="http://www.w3.org/2000/svg"><path d="M0 14.866l1.483-.461a.704.704 0 00.349-.225.627.627 0 00.157-.427V1.832a.57.57 0 00-.146-.405.776.776 0 00-.36-.236L0 .741V0h12.573v4.483h-.91l-1-2.719a.7.7 0 00-.168-.292c-.068-.075-.169-.112-.304-.112H5.27v12.393a.63.63 0 00.146.427.707.707 0 00.382.225l1.64.46v.731H0v-.73zm13.285 5.359l1.168-.404a.858.858 0 00.371-.236.571.571 0 00.124-.382V6.888a.707.707 0 00-.146-.46c-.09-.128-.259-.237-.506-.327l-.989-.37v-.607l4.652-.843v1.832h.034c.337-.472.678-.836 1.022-1.09.345-.263.674-.454.99-.573a3.1 3.1 0 01.887-.225c.277-.03.51-.045.697-.045.681 0 1.288.138 1.82.416.532.27.981.644 1.348 1.123.375.48.656 1.049.843 1.708a7.47 7.47 0 01.292 2.146A8.23 8.23 0 0125.544 12a6.036 6.036 0 01-1.012 1.967 4.868 4.868 0 01-1.629 1.337c-.637.322-1.36.483-2.168.483a4.09 4.09 0 01-.888-.09 3.59 3.59 0 01-.742-.247 3.73 3.73 0 01-1.067-.775l.011.494v4.034a.6.6 0 00.135.404.68.68 0 00.37.214l1.484.404v.708h-6.753v-.708zm6.697-5.91c.464 0 .865-.105 1.202-.315.337-.21.61-.494.82-.854.217-.36.378-.779.483-1.258.105-.48.158-.992.158-1.54 0-.629-.049-1.205-.146-1.73-.098-.524-.251-.974-.461-1.348a2.373 2.373 0 00-.82-.877c-.33-.21-.73-.314-1.203-.314-.134 0-.292.007-.471.022-.18.015-.364.053-.551.113-.18.06-.352.15-.517.27-.165.12-.307.284-.427.494v6.831c.097.083.229.158.393.225.173.068.349.12.528.157.188.038.371.068.551.09a3.7 3.7 0 00.46.034zm10.154 1.505c-.457 0-.873-.082-1.247-.247a3.1 3.1 0 01-.967-.685 3.142 3.142 0 01-.82-2.124c0-.471.079-.891.236-1.258.165-.375.382-.704.652-.989.27-.284.58-.528.932-.73a6.44 6.44 0 011.113-.495 7.48 7.48 0 011.157-.28 6.47 6.47 0 011.101-.102c.075 0 .176.008.304.023.134.007.273.019.415.034.15.007.292.018.427.033.135.008.24.012.315.012l.011-1.54c0-.367-.022-.67-.067-.91-.045-.247-.124-.438-.236-.573a.845.845 0 00-.438-.292c-.18-.06-.409-.09-.686-.09-.3 0-.618.071-.955.213-.337.135-.674.3-1.011.495-.33.195-.644.4-.944.618-.292.21-.547.386-.764.528h-.416l-.404-2.304c.277-.12.576-.235.899-.348.322-.12.666-.225 1.033-.314a9.402 9.402 0 011.18-.225c.42-.06.862-.09 1.326-.09.54 0 1.082.06 1.63.18a4.2 4.2 0 011.483.595c.434.277.786.648 1.056 1.113.277.464.412 1.04.404 1.73l-.056 5.63c0 .12.019.224.056.314a.79.79 0 00.18.236c.082.067.18.12.292.157.113.038.247.056.405.056.082 0 .217-.014.404-.045.187-.03.363-.063.528-.1h.247v.83c-.112.09-.273.188-.483.293a6.24 6.24 0 01-.696.303 6.39 6.39 0 01-.81.248 3.376 3.376 0 01-.797.1 4.34 4.34 0 01-.967-.1 2.06 2.06 0 01-.741-.304 1.475 1.475 0 01-.495-.573c-.112-.24-.168-.535-.168-.887h-.023a4.419 4.419 0 01-.887 1.01 3.838 3.838 0 01-.955.563 3.485 3.485 0 01-.933.236 6.75 6.75 0 01-.82.056zm1.753-1.763c.165 0 .33-.012.494-.034a2.1 2.1 0 00.955-.45c.15-.12.281-.273.393-.46l.023-3.18c-.524 0-1 .045-1.427.135-.42.082-.78.217-1.079.404a1.99 1.99 0 00-.696.72c-.158.284-.236.632-.236 1.044 0 .352.048.645.146.877.097.232.22.42.37.562.15.142.319.243.506.303.187.052.371.079.55.079z" fill="#93550D"/><path d="M38.878 14.349h1.36c.3-.36.592-.832.876-1.416a14.2 14.2 0 00.764-1.978c.233-.726.416-1.49.551-2.292.142-.809.213-1.6.213-2.37 0-.233-.048-.394-.146-.484a.706.706 0 00-.348-.202l-1.315-.393v-.708h10.821v.708l-1.157.393a.824.824 0 00-.349.225.556.556 0 00-.146.393v8.124h2.101v4.843H50.97l-1.17-3.203a.717.717 0 00-.202-.326.48.48 0 00-.315-.1h-7.596c-.12 0-.22.03-.303.09a.793.793 0 00-.214.336l-1.168 3.203h-1.124v-4.843zm8.034 0V5.742h-2.854a25.323 25.323 0 01-.236 2.865c-.12.876-.284 1.678-.494 2.405a11.87 11.87 0 01-.708 1.921 7.397 7.397 0 01-.876 1.416h5.168zm5.844-.09h.944c.412-.495.797-1.041 1.157-1.64.36-.6.69-1.237.989-1.91.307-.682.577-1.383.809-2.102.232-.72.43-1.446.595-2.18.165-.741.289-1.48.371-2.213.09-.734.135-1.442.135-2.124 0-.172-.015-.31-.045-.416a.642.642 0 00-.101-.258.394.394 0 00-.169-.146 1.456 1.456 0 00-.19-.079l-1.652-.45V0h13.27v.742l-1.472.449a.903.903 0 00-.371.236.587.587 0 00-.146.416v12.416h2.303v5.37h-1.18l-1.123-3.651a.669.669 0 00-.146-.28c-.068-.068-.169-.102-.303-.102H55.508c-.135 0-.236.034-.304.101a.784.784 0 00-.157.281l-1.112 3.652h-1.18v-5.371zm10.843 0V1.337h-4.202a27.917 27.917 0 01-.427 3.989 26.184 26.184 0 01-.877 3.55A21.183 21.183 0 0156.88 11.9a15.59 15.59 0 01-1.416 2.36h8.135zm12.166 1.584c-.832 0-1.592-.123-2.281-.37a4.928 4.928 0 01-1.776-1.102 5.062 5.062 0 01-1.157-1.798c-.27-.719-.404-1.546-.404-2.483 0-.786.13-1.535.393-2.247a5.696 5.696 0 011.123-1.888 5.523 5.523 0 011.798-1.292c.712-.322 1.513-.483 2.405-.483.771 0 1.453.127 2.045.382a4.45 4.45 0 011.483.978c.404.404.712.868.921 1.393a4.256 4.256 0 01.304 1.876c0 .12-.004.244-.011.371l-.023.348a3.66 3.66 0 01-.022.248H73.37c.008 1.385.308 2.442.9 3.168.591.72 1.505 1.079 2.74 1.079.405 0 .773-.034 1.102-.101.33-.075.63-.165.899-.27.27-.105.51-.217.72-.337l.572-.315h.303v.944a8.224 8.224 0 01-.91.663 9.22 9.22 0 01-1.146.618c-.412.18-.854.326-1.326.438-.471.12-.958.18-1.46.18zM77.46 8.72c0-.479-.026-.921-.078-1.325a3.385 3.385 0 00-.292-1.057 1.635 1.635 0 00-.562-.696c-.233-.173-.525-.259-.877-.259-.344 0-.651.079-.921.236-.27.15-.498.367-.685.652a3.62 3.62 0 00-.428 1.056 7.415 7.415 0 00-.202 1.393h4.045zm14.129 7a3.094 3.094 0 01-.618-.034 1.15 1.15 0 01-.45-.157 1.51 1.51 0 01-.36-.338 3.829 3.829 0 01-.325-.55l-1.944-3.81-1.326-.291v3.326c0 .164.045.296.135.393.097.09.217.168.36.236l.876.393v.708h-6.101v-.708l1.157-.393a.876.876 0 00.348-.225.57.57 0 00.147-.404V6.225a.556.556 0 00-.147-.393.742.742 0 00-.348-.225l-1.157-.393v-.708h6.101v.708l-.876.393a1.11 1.11 0 00-.36.236c-.09.09-.135.217-.135.382v3.37h.64c.285 0 .551-.04.798-.123a1.57 1.57 0 00.652-.416c.202-.232.378-.516.528-.853.15-.338.289-.682.416-1.034.127-.36.255-.7.382-1.023a3.01 3.01 0 01.91-1.303c.157-.135.319-.24.483-.315a1.97 1.97 0 01.528-.168 2.77 2.77 0 01.573-.056c.21 0 .454.014.73.044.278.023.533.057.765.102l-.438 2.539h-.281a16.115 16.115 0 00-.36-.067 34.567 34.567 0 01-.37-.068 2.995 2.995 0 00-.338-.045 1.67 1.67 0 00-.247-.022c-.262 0-.472.06-.629.18a1.558 1.558 0 00-.416.46c-.12.195-.24.408-.36.64-.12.233-.28.465-.483.697l2.956 5.27c.082.15.194.27.337.36.15.082.314.153.494.213l.81.281v.708l-3.057.124zm8.957.18c-.877 0-1.667-.135-2.37-.405a5.14 5.14 0 01-1.788-1.169 5.344 5.344 0 01-1.134-1.843c-.263-.719-.394-1.524-.394-2.415 0-.824.132-1.592.394-2.304a5.479 5.479 0 011.134-1.876A5.267 5.267 0 0198.22 4.64c.72-.308 1.54-.461 2.461-.461.989 0 1.843.161 2.562.483.719.322 1.307.753 1.764 1.292a5.173 5.173 0 011.034 1.865 7.23 7.23 0 01.337 2.203 6.62 6.62 0 01-.394 2.292 5.261 5.261 0 01-2.966 3.124c-.719.307-1.543.46-2.472.46zm.157-1.214c.487 0 .88-.143 1.18-.427a2.9 2.9 0 00.719-1.079 5.63 5.63 0 00.349-1.438c.059-.524.089-1.026.089-1.506 0-.599-.041-1.187-.123-1.764a6.187 6.187 0 00-.416-1.55c-.195-.457-.453-.824-.775-1.102-.315-.284-.712-.427-1.191-.427-.48 0-.873.139-1.18.416-.3.277-.536.633-.708 1.068-.165.434-.28.914-.348 1.438a12.99 12.99 0 00.01 3.157c.068.577.192 1.105.372 1.585.187.471.442.861.764 1.168.322.307.741.46 1.258.46zm6.672 5.539l1.169-.404a.861.861 0 00.371-.236.573.573 0 00.123-.382V6.888a.704.704 0 00-.146-.46c-.09-.128-.258-.237-.505-.327l-.989-.37v-.607l4.652-.843v1.832h.033c.337-.472.678-.836 1.023-1.09.344-.263.674-.454.989-.573.322-.128.618-.203.887-.225.277-.03.51-.045.697-.045.682 0 1.288.138 1.82.416.532.27.981.644 1.349 1.123a4.93 4.93 0 01.842 1.708c.195.652.292 1.367.292 2.146 0 .862-.116 1.67-.348 2.427a6.03 6.03 0 01-1.011 1.967 4.87 4.87 0 01-1.629 1.337c-.637.322-1.36.483-2.169.483-.322 0-.618-.03-.888-.09a3.58 3.58 0 01-.741-.247 3.73 3.73 0 01-1.068-.775l.011.494v4.034a.6.6 0 00.135.404c.09.105.214.176.371.214l1.483.404v.708h-6.753v-.708zm6.697-5.91c.465 0 .865-.105 1.202-.315a2.43 2.43 0 00.821-.854c.217-.36.378-.779.483-1.258.105-.48.157-.992.157-1.54 0-.629-.049-1.205-.146-1.73a4.372 4.372 0 00-.461-1.348 2.368 2.368 0 00-.82-.877c-.329-.21-.73-.314-1.202-.314-.135 0-.292.007-.472.022a2.49 2.49 0 00-.551.113c-.179.06-.352.15-.517.27a1.56 1.56 0 00-.427.494v6.831c.098.083.229.158.394.225.172.068.348.12.528.157.187.038.371.068.55.09.18.023.334.034.461.034z" fill="#93550D"/></svg>