<svg width="120" height="21" viewBox="0 0 120 21" fill="none" xmlns="http://www.w3.org/2000/svg">
<path d="M0 14.8656L1.48319 14.405C1.61803 14.3675 1.73414 14.2926 1.83152 14.1802C1.93639 14.0604 1.98883 13.9181 1.98883 13.7533V1.83152C1.98883 1.66672 1.94014 1.53188 1.84276 1.42701C1.74537 1.31465 1.62552 1.23599 1.48319 1.19105L0 0.741596V0H12.5734V4.48329H11.6633L10.6633 1.7641C10.6258 1.64425 10.5696 1.54687 10.4947 1.47196C10.4273 1.39705 10.3262 1.35959 10.1913 1.35959H5.26983V13.7533C5.26983 13.9255 5.31852 14.0679 5.4159 14.1802C5.51329 14.2926 5.64063 14.3675 5.79794 14.405L7.43844 14.8656V15.596H0V14.8656Z" fill="#93550D"/>
<path d="M13.2848 20.2254L14.4534 19.8209C14.6182 19.7609 14.7418 19.6823 14.8242 19.5849C14.9066 19.4875 14.9478 19.3602 14.9478 19.2029V6.88786C14.9478 6.70059 14.8991 6.54703 14.8017 6.42717C14.7119 6.29983 14.5433 6.19121 14.2961 6.10132L13.3073 5.73052V5.12376L17.9591 4.28104V6.11256H17.9929C18.3299 5.64063 18.6708 5.27732 19.0154 5.02263C19.3599 4.76045 19.6895 4.56944 20.0042 4.44958C20.3263 4.32224 20.6222 4.24733 20.8918 4.22486C21.169 4.19489 21.4012 4.17991 21.5885 4.17991C22.2701 4.17991 22.8769 4.31849 23.4088 4.59565C23.9406 4.86532 24.3901 5.23987 24.7571 5.71929C25.1317 6.1987 25.4126 6.76801 25.5998 7.4272C25.7946 8.07891 25.892 8.79429 25.892 9.57334C25.892 10.4348 25.7759 11.2438 25.5437 12.0004C25.3114 12.7495 24.9744 13.4049 24.5324 13.9667C24.0904 14.5286 23.5473 14.9743 22.9031 15.3039C22.2664 15.626 21.5435 15.787 20.7345 15.787C20.4124 15.787 20.1165 15.7571 19.8468 15.6971C19.5772 15.6372 19.33 15.5548 19.1052 15.4499C18.888 15.3451 18.6895 15.2252 18.5097 15.0904C18.3299 14.9555 18.1726 14.817 18.0378 14.6746L18.049 15.169V19.2029C18.049 19.3677 18.094 19.5025 18.1839 19.6074C18.2738 19.7122 18.3974 19.7834 18.5547 19.8209L20.0379 20.2254V20.9333H13.2848V20.2254ZM19.9817 14.3151C20.4461 14.3151 20.8469 14.2102 21.184 14.0004C21.5211 13.7907 21.7945 13.5061 22.0042 13.1465C22.2215 12.7869 22.3825 12.3674 22.4874 11.888C22.5923 11.4086 22.6447 10.8955 22.6447 10.3486C22.6447 9.71941 22.596 9.14262 22.4986 8.61825C22.4012 8.09389 22.2477 7.64444 22.0379 7.2699C21.8282 6.89535 21.5548 6.60321 21.2177 6.39346C20.8881 6.18372 20.4873 6.07885 20.0154 6.07885C19.8806 6.07885 19.7232 6.08634 19.5435 6.10132C19.3637 6.1163 19.1802 6.15376 18.9929 6.21368C18.8131 6.27361 18.6408 6.3635 18.476 6.48335C18.3112 6.60321 18.1689 6.76801 18.049 6.97775V13.8094C18.1464 13.8918 18.2775 13.9667 18.4423 14.0342C18.6146 14.1016 18.7906 14.154 18.9704 14.1915C19.1577 14.2289 19.3412 14.2589 19.521 14.2814C19.7008 14.3038 19.8543 14.3151 19.9817 14.3151Z" fill="#93550D"/>
<path d="M30.1359 15.8207C29.6789 15.8207 29.2632 15.7383 28.8886 15.5735C28.5141 15.4012 28.192 15.1728 27.9223 14.8881C27.6601 14.6035 27.4579 14.2776 27.3156 13.9106C27.1732 13.5435 27.1021 13.1615 27.1021 12.7645C27.1021 12.2925 27.1807 11.873 27.338 11.506C27.5028 11.1314 27.7201 10.8018 27.9897 10.5172C28.2594 10.2325 28.5703 9.98909 28.9223 9.78683C29.2819 9.58458 29.6527 9.41978 30.0347 9.29243C30.4243 9.16509 30.81 9.07145 31.1921 9.01153C31.5816 8.94411 31.9487 8.9104 32.2932 8.9104C32.3681 8.9104 32.4693 8.91789 32.5966 8.93287C32.7315 8.94036 32.87 8.9516 33.0124 8.96658C33.1622 8.97407 33.3045 8.98531 33.4393 9.00029C33.5742 9.00778 33.6791 9.01153 33.754 9.01153L33.7652 7.47215C33.7652 7.1051 33.7427 6.80172 33.6978 6.56201C33.6528 6.31481 33.5742 6.12379 33.4618 5.98896C33.3495 5.84663 33.2034 5.74925 33.0236 5.69681C32.8438 5.63689 32.6153 5.60692 32.3382 5.60692C32.0386 5.60692 31.7202 5.67808 31.3831 5.82041C31.046 5.95525 30.7089 6.12005 30.3718 6.31481C30.0422 6.50957 29.7276 6.71557 29.428 6.93281C29.1358 7.14255 28.8811 7.31859 28.6639 7.46091H28.2482L27.8437 5.15747C28.1208 5.03761 28.4205 4.92151 28.7426 4.80914C29.0647 4.68929 29.4093 4.58442 29.7763 4.49453C30.1508 4.39714 30.5441 4.32224 30.9561 4.2698C31.3756 4.20987 31.8176 4.17991 32.282 4.17991C32.8213 4.17991 33.3644 4.23984 33.9113 4.35969C34.4656 4.47205 34.96 4.67056 35.3945 4.95521C35.8289 5.23238 36.181 5.60318 36.4507 6.06761C36.7278 6.53204 36.8627 7.10884 36.8552 7.798L36.799 13.4274C36.799 13.5473 36.8177 13.6521 36.8552 13.742C36.9001 13.8319 36.9601 13.9106 37.035 13.978C37.1174 14.0454 37.2147 14.0978 37.3271 14.1353C37.4395 14.1727 37.5743 14.1915 37.7316 14.1915C37.814 14.1915 37.9489 14.1765 38.1361 14.1465C38.3234 14.1166 38.4994 14.0828 38.6642 14.0454H38.9114V14.8769C38.7991 14.9668 38.638 15.0642 38.4283 15.169C38.226 15.2739 37.9938 15.375 37.7316 15.4724C37.4769 15.5698 37.2073 15.6522 36.9226 15.7196C36.6454 15.787 36.3795 15.8207 36.1248 15.8207C35.7728 15.8207 35.4506 15.787 35.1585 15.7196C34.8738 15.6597 34.6266 15.5586 34.4169 15.4162C34.2072 15.2739 34.0424 15.0829 33.9225 14.8432C33.8101 14.6035 33.754 14.3076 33.754 13.9555H33.7315C33.4543 14.375 33.1584 14.7121 32.8438 14.9668C32.5292 15.214 32.2108 15.4012 31.8887 15.5286C31.5666 15.6559 31.2558 15.7346 30.9561 15.7646C30.6565 15.802 30.3831 15.8207 30.1359 15.8207ZM31.8887 14.0566C32.0535 14.0566 32.2183 14.0454 32.3831 14.0229C32.5479 13.993 32.7127 13.9405 32.8775 13.8656C33.0423 13.7907 33.1959 13.6933 33.3382 13.5735C33.488 13.4536 33.6191 13.3001 33.7315 13.1128L33.754 9.9329C33.2296 9.9329 32.7539 9.97785 32.327 10.0677C31.9075 10.1501 31.5479 10.285 31.2483 10.4722C30.9486 10.6595 30.7164 10.8992 30.5516 11.1914C30.3943 11.476 30.3156 11.8244 30.3156 12.2363C30.3156 12.5884 30.3643 12.8806 30.4617 13.1128C30.5591 13.345 30.6827 13.5323 30.8325 13.6746C30.9823 13.8169 31.1509 13.9181 31.3382 13.978C31.5254 14.0304 31.709 14.0566 31.8887 14.0566Z" fill="#93550D"/>
<path d="M38.8783 14.3488H40.2379C40.5376 13.9892 40.8297 13.5173 41.1144 12.933C41.399 12.3412 41.6537 11.682 41.8784 10.9554C42.1106 10.2288 42.2942 9.46472 42.429 8.6632C42.5713 7.85419 42.6425 7.0639 42.6425 6.29234C42.6425 6.06012 42.5938 5.89907 42.4964 5.80918C42.4065 5.71179 42.2904 5.64438 42.1481 5.60692L40.8335 5.21365V4.50576H51.654V5.21365L50.4967 5.60692C50.3619 5.65187 50.2457 5.72678 50.1484 5.83165C50.051 5.93652 50.0023 6.06761 50.0023 6.22492V14.3488H52.1035V19.1916H50.9686L49.8 15.9893C49.7476 15.8395 49.6802 15.7308 49.5978 15.6634C49.5154 15.596 49.4105 15.5623 49.2832 15.5623H41.6874C41.5676 15.5623 41.4664 15.5923 41.384 15.6522C41.3016 15.7196 41.2305 15.832 41.1705 15.9893L40.002 19.1916H38.8783V14.3488ZM46.9123 14.3488V5.74176H44.0583C44.0283 6.76801 43.9497 7.72309 43.8223 8.60702C43.7025 9.48345 43.5377 10.285 43.3279 11.0116C43.1257 11.7307 42.8897 12.3712 42.62 12.933C42.3504 13.4873 42.0582 13.9593 41.7436 14.3488H46.9123Z" fill="#93550D"/>
<path d="M52.7559 14.2589H53.6997C54.1117 13.7645 54.4975 13.2177 54.8571 12.6184C55.2166 12.0191 55.5462 11.3824 55.8459 10.7082C56.153 10.0265 56.4226 9.32614 56.6549 8.60702C56.8871 7.88789 57.0856 7.16128 57.2504 6.42717C57.4152 5.68558 57.5388 4.94772 57.6212 4.21362C57.7111 3.47951 57.756 2.77162 57.756 2.08995C57.756 1.91766 57.741 1.77908 57.7111 1.67421C57.6886 1.56185 57.6549 1.4757 57.61 1.41578C57.565 1.34836 57.5088 1.29967 57.4414 1.2697C57.3815 1.23974 57.3178 1.21352 57.2504 1.19105L55.5987 0.741596V0H68.8687V0.741596L67.3968 1.19105C67.247 1.24349 67.1234 1.32214 67.026 1.42701C66.9286 1.53188 66.8799 1.67047 66.8799 1.84275V14.2589H69.1834V19.6298H68.0035L66.8799 15.978C66.85 15.8657 66.8013 15.772 66.7338 15.6971C66.6664 15.6297 66.5653 15.596 66.4305 15.596H55.5088C55.3739 15.596 55.2728 15.6297 55.2054 15.6971C55.138 15.772 55.0855 15.8657 55.0481 15.978L53.9357 19.6298H52.7559V14.2589ZM63.5989 14.2589V1.33712H59.3965C59.3441 2.73042 59.2018 4.06006 58.9696 5.32601C58.7448 6.59197 58.4527 7.77553 58.0931 8.87669C57.741 9.97785 57.3365 10.9854 56.8796 11.8993C56.4301 12.8057 55.9582 13.5922 55.4638 14.2589H63.5989Z" fill="#93550D"/>
<path d="M75.7647 15.8432C74.9332 15.8432 74.1729 15.7196 73.4837 15.4724C72.802 15.2252 72.2103 14.8582 71.7084 14.3712C71.214 13.8843 70.8282 13.2851 70.551 12.5734C70.2814 11.8543 70.1465 11.0266 70.1465 10.0902C70.1465 9.30367 70.2776 8.55458 70.5398 7.84295C70.802 7.12382 71.1765 6.49459 71.6634 5.95525C72.1578 5.4159 72.7571 4.98518 73.4612 4.66307C74.1729 4.34096 74.9744 4.17991 75.8658 4.17991C76.6374 4.17991 77.319 4.30725 77.9108 4.56194C78.5026 4.80914 78.997 5.135 79.394 5.5395C79.7985 5.94401 80.1056 6.40845 80.3154 6.93281C80.5251 7.45717 80.63 7.98902 80.63 8.52836C80.63 8.59578 80.6263 8.68942 80.6188 8.80927C80.6188 8.92913 80.615 9.05272 80.6075 9.18007C80.6 9.29992 80.5926 9.41603 80.5851 9.5284C80.5776 9.64076 80.5701 9.72316 80.5626 9.7756H73.3714C73.3788 11.1614 73.6785 12.2176 74.2703 12.9442C74.862 13.6634 75.7759 14.0229 77.0119 14.0229C77.4164 14.0229 77.7835 13.9892 78.1131 13.9218C78.4427 13.8469 78.7423 13.757 79.012 13.6521C79.2816 13.5473 79.5214 13.4349 79.7311 13.315C79.9483 13.1952 80.1394 13.0903 80.3042 13.0004H80.6075V13.9443C80.3528 14.1615 80.0495 14.3825 79.6974 14.6072C79.3453 14.8319 78.9633 15.0379 78.5513 15.2252C78.1393 15.405 77.6973 15.5511 77.2254 15.6634C76.7535 15.7833 76.2666 15.8432 75.7647 15.8432ZM77.4614 8.71938C77.4614 8.23997 77.4352 7.798 77.3827 7.3935C77.3303 6.9815 77.2329 6.62943 77.0906 6.33728C76.9557 6.03765 76.7685 5.80543 76.5287 5.64063C76.2965 5.46834 76.0044 5.3822 75.6523 5.3822C75.3077 5.3822 75.0006 5.46085 74.7309 5.61816C74.4613 5.76798 74.2328 5.98521 74.0455 6.26986C73.8657 6.55452 73.7234 6.90659 73.6185 7.32608C73.5137 7.73808 73.4463 8.20251 73.4163 8.71938H77.4614Z" fill="#93550D"/>
<path d="M91.5889 15.7196C91.3492 15.7271 91.1432 15.7159 90.9709 15.6859C90.8061 15.6634 90.6562 15.611 90.5214 15.5286C90.3941 15.4462 90.2742 15.3338 90.1618 15.1915C90.057 15.0492 89.9484 14.8656 89.836 14.6409L87.8921 10.8318L86.5662 10.5397V13.8656C86.5662 14.0304 86.6112 14.1615 86.7011 14.2589C86.7984 14.3488 86.9183 14.4274 87.0606 14.4948L87.9371 14.8881V15.596H81.8357V14.8881L82.9931 14.4948C83.1354 14.4424 83.2515 14.3675 83.3414 14.2701C83.4388 14.1652 83.4875 14.0304 83.4875 13.8656V6.22492C83.4875 6.06761 83.4388 5.93652 83.3414 5.83165C83.2515 5.72678 83.1354 5.65187 82.9931 5.60692L81.8357 5.21365V4.50576H87.9371V5.21365L87.0606 5.60692C86.9183 5.66685 86.7984 5.7455 86.7011 5.84288C86.6112 5.93277 86.5662 6.06012 86.5662 6.22492V9.59581H87.2067C87.4913 9.59581 87.7573 9.55461 88.0045 9.47221C88.2517 9.38982 88.4689 9.25123 88.6562 9.05647C88.8584 8.82425 89.0345 8.5396 89.1843 8.20251C89.3341 7.86542 89.4727 7.52084 89.6 7.16877C89.7274 6.80921 89.8547 6.46837 89.9821 6.14626C90.1094 5.81667 90.2555 5.54699 90.4203 5.33725C90.5776 5.135 90.7349 4.9702 90.8922 4.84285C91.0495 4.70802 91.2106 4.60314 91.3754 4.52823C91.5477 4.44584 91.7237 4.38965 91.9035 4.35969C92.0833 4.32224 92.2743 4.30351 92.4765 4.30351C92.6863 4.30351 92.9297 4.31849 93.2069 4.34845C93.4841 4.37093 93.7387 4.40464 93.971 4.44958L93.5327 6.98899H93.2518C93.1395 6.96652 93.0196 6.94404 92.8923 6.92157C92.7649 6.8991 92.6413 6.87663 92.5215 6.85415C92.4016 6.83168 92.2893 6.8167 92.1844 6.80921C92.087 6.79423 92.0046 6.78673 91.9372 6.78673C91.675 6.78673 91.4653 6.84666 91.308 6.96652C91.1506 7.07888 91.0121 7.23244 90.8922 7.4272C90.7724 7.62197 90.6525 7.83546 90.5326 8.06768C90.4128 8.29989 90.2517 8.53211 90.0495 8.76433L93.0046 14.0342C93.087 14.184 93.1994 14.3038 93.3417 14.3937C93.4915 14.4761 93.6563 14.5473 93.8361 14.6072L94.6451 14.8881V15.596L91.5889 15.7196Z" fill="#93550D"/>
<path d="M100.546 15.8994C99.6695 15.8994 98.8792 15.7646 98.1751 15.4949C97.4784 15.2177 96.8829 14.8282 96.3885 14.3263C95.9016 13.8169 95.5233 13.2027 95.2537 12.4835C94.9915 11.7644 94.8604 10.9592 94.8604 10.0677C94.8604 9.24374 94.9915 8.47593 95.2537 7.76429C95.5158 7.04517 95.8941 6.41968 96.3885 5.88783C96.8904 5.35598 97.5009 4.94023 98.22 4.6406C98.9392 4.33347 99.7594 4.17991 100.681 4.17991C101.67 4.17991 102.524 4.34096 103.243 4.66307C103.962 4.98518 104.55 5.4159 105.007 5.95525C105.471 6.4871 105.816 7.10884 106.041 7.82048C106.265 8.52462 106.378 9.25873 106.378 10.0228C106.378 10.8318 106.247 11.5959 105.984 12.315C105.73 13.0266 105.351 13.6484 104.849 14.1802C104.355 14.7121 103.745 15.1316 103.018 15.4387C102.299 15.7458 101.475 15.8994 100.546 15.8994ZM100.703 14.6859C101.19 14.6859 101.583 14.5435 101.883 14.2589C102.19 13.9742 102.43 13.6147 102.602 13.1802C102.774 12.7457 102.891 12.2663 102.951 11.742C103.01 11.2176 103.04 10.7157 103.04 10.2363C103.04 9.63701 102.999 9.04898 102.917 8.47218C102.834 7.89538 102.696 7.37851 102.501 6.92157C102.306 6.46463 102.048 6.09757 101.726 5.82041C101.411 5.53576 101.014 5.39343 100.535 5.39343C100.055 5.39343 99.662 5.53201 99.3549 5.80918C99.0553 6.08634 98.8193 6.44215 98.647 6.87663C98.4822 7.3111 98.3661 7.79051 98.2987 8.31487C98.2388 8.83174 98.2088 9.32989 98.2088 9.80931C98.2088 10.3412 98.2425 10.8955 98.3099 11.4723C98.3774 12.0491 98.501 12.5772 98.6807 13.0566C98.868 13.5285 99.1227 13.9181 99.4448 14.2252C99.7669 14.5323 100.186 14.6859 100.703 14.6859Z" fill="#93550D"/>
<path d="M107.375 20.2254L108.544 19.8209C108.709 19.7609 108.832 19.6823 108.915 19.5849C108.997 19.4875 109.038 19.3602 109.038 19.2029V6.88786C109.038 6.70059 108.99 6.54703 108.892 6.42717C108.802 6.29983 108.634 6.19121 108.387 6.10132L107.398 5.73052V5.12376L112.05 4.28104V6.11256H112.083C112.42 5.64063 112.761 5.27732 113.106 5.02263C113.45 4.76045 113.78 4.56944 114.095 4.44958C114.417 4.32224 114.713 4.24733 114.982 4.22486C115.259 4.19489 115.492 4.17991 115.679 4.17991C116.361 4.17991 116.967 4.31849 117.499 4.59565C118.031 4.86532 118.48 5.23987 118.848 5.71929C119.222 6.1987 119.503 6.76801 119.69 7.4272C119.885 8.07891 119.982 8.79429 119.982 9.57334C119.982 10.4348 119.866 11.2438 119.634 12.0004C119.402 12.7495 119.065 13.4049 118.623 13.9667C118.181 14.5286 117.638 14.9743 116.994 15.3039C116.357 15.626 115.634 15.787 114.825 15.787C114.503 15.787 114.207 15.7571 113.937 15.6971C113.668 15.6372 113.42 15.5548 113.196 15.4499C112.978 15.3451 112.78 15.2252 112.6 15.0904C112.42 14.9555 112.263 14.817 112.128 14.6746L112.139 15.169V19.2029C112.139 19.3677 112.184 19.5025 112.274 19.6074C112.364 19.7122 112.488 19.7834 112.645 19.8209L114.128 20.2254V20.9333H107.375V20.2254ZM114.072 14.3151C114.537 14.3151 114.937 14.2102 115.274 14.0004C115.611 13.7907 115.885 13.5061 116.095 13.1465C116.312 12.7869 116.473 12.3674 116.578 11.888C116.683 11.4086 116.735 10.8955 116.735 10.3486C116.735 9.71941 116.686 9.14262 116.589 8.61825C116.492 8.09389 116.338 7.64444 116.128 7.2699C115.919 6.89535 115.645 6.60321 115.308 6.39346C114.979 6.18372 114.578 6.07885 114.106 6.07885C113.971 6.07885 113.814 6.08634 113.634 6.10132C113.454 6.1163 113.271 6.15376 113.083 6.21368C112.904 6.27361 112.731 6.3635 112.566 6.48335C112.402 6.60321 112.259 6.76801 112.139 6.97775V13.8094C112.237 13.8918 112.368 13.9667 112.533 14.0342C112.705 14.1016 112.881 14.154 113.061 14.1915C113.248 14.2289 113.432 14.2589 113.611 14.2814C113.791 14.3038 113.945 14.3151 114.072 14.3151Z" fill="#93550D"/>
</svg>
