<svg width="150" height="150" viewBox="0 0 150 150" fill="none" xmlns="http://www.w3.org/2000/svg">
<path d="M109.917 96.2298C112.14 92.5937 113.768 88.6575 114.767 84.4839H123.194C124.532 84.4839 125.613 83.3994 125.613 82.0645V67.5484C125.613 66.2135 124.532 65.129 123.194 65.129H114.767C113.768 60.9554 112.14 57.0192 109.917 53.3831L115.866 47.434C116.321 46.9791 116.575 46.3649 116.575 45.7234C116.575 45.0819 116.321 44.4653 115.866 44.0128L105.6 33.7471C104.69 32.8399 103.084 32.8399 102.179 33.7471L96.2298 39.6963C92.5913 37.4707 88.6551 35.8452 84.4862 34.8457V26.4194C84.4862 25.0845 83.4053 24 82.0669 24H67.5507C66.2135 24 65.1314 25.0845 65.1314 26.4194V34.8457C60.9601 35.8475 57.024 37.4707 53.3878 39.6963L47.4387 33.7471C46.9839 33.2923 46.3719 33.0383 45.7281 33.0383C45.0843 33.0383 44.47 33.2923 44.0176 33.7471L33.7518 44.0128C33.297 44.4676 33.043 45.0819 33.043 45.7234C33.043 46.3649 33.297 46.9815 33.7518 47.434L39.7022 53.3831C37.4777 57.0192 35.8499 60.9554 34.8505 65.129H26.4194C25.0809 65.129 24 66.2135 24 67.5484V82.0645C24 83.3994 25.0809 84.4839 26.4194 84.4839H34.8457C35.8452 88.6575 37.473 92.5937 39.6963 96.2298L33.7471 102.179C33.2923 102.634 33.0383 103.248 33.0383 103.89C33.0383 104.531 33.2923 105.148 33.7471 105.6L44.0128 115.866C44.9201 116.773 46.5267 116.773 47.434 115.866L53.3831 109.917C57.0216 112.142 60.9578 113.768 65.1267 114.767V123.194C65.1267 124.528 66.2076 125.613 67.546 125.613H82.0621C83.3994 125.613 84.4815 124.528 84.4815 123.194V114.767C88.6528 113.765 92.5889 112.142 96.2251 109.917L102.174 115.866C102.629 116.321 103.241 116.575 103.885 116.575C104.529 116.575 105.143 116.321 105.595 115.866L115.861 105.6C116.316 105.145 116.57 104.531 116.57 103.89C116.57 103.248 116.316 102.631 115.861 102.179L109.917 96.2298ZM103.89 110.734L98.2723 105.113C97.4513 104.294 96.1601 104.173 95.1997 104.824C91.0957 107.615 86.5264 109.504 81.6144 110.436C80.4721 110.651 79.6452 111.651 79.6452 112.812V120.774H69.9677V112.812C69.9677 111.651 69.1408 110.651 68.0008 110.436C63.0901 109.504 58.5195 107.615 54.4156 104.824C53.4575 104.173 52.1663 104.291 51.343 105.113L45.7258 110.734L38.8812 103.89L44.5019 98.2699C45.3241 97.4489 45.4446 96.1577 44.789 95.1973C41.9999 91.0981 40.1109 86.5287 39.1789 81.6121C38.9615 80.4721 37.9621 79.6452 36.8008 79.6452H28.8387V69.9677H36.8008C37.9621 69.9677 38.9615 69.1408 39.1765 68.0008C40.1109 63.0842 41.9975 58.5148 44.7866 54.4156C45.4422 53.4552 45.3217 52.164 44.4995 51.343L38.8788 45.7234L45.7234 38.8788L51.3406 44.4995C52.164 45.3217 53.4528 45.4399 54.4132 44.789C58.5172 41.9975 63.0865 40.1086 67.9985 39.1765C69.1408 38.9615 69.9677 37.9621 69.9677 36.8008V28.8387H79.6452V36.8008C79.6452 37.9621 80.4721 38.9615 81.6121 39.1765C86.5228 40.1086 91.0934 41.9975 95.1973 44.789C96.1577 45.4422 97.4489 45.3241 98.2699 44.4995L103.887 38.8788L110.732 45.7234L105.111 51.343C104.289 52.164 104.168 53.4552 104.824 54.4156C107.613 58.5148 109.502 63.0842 110.434 68.0008C110.651 69.1408 111.651 69.9677 112.812 69.9677H120.774V79.6452H112.812C111.651 79.6452 110.651 80.4721 110.436 81.6121C109.502 86.5287 107.615 91.0981 104.826 95.1973C104.171 96.1577 104.291 97.4489 105.113 98.2699L110.734 103.89L103.89 110.734Z" fill="#A4CA85"/>
<path d="M74.9999 48.3872C60.3266 48.3872 48.387 60.3269 48.387 75.0001C48.387 89.6733 60.3266 101.613 74.9999 101.613C89.6731 101.613 101.613 89.6733 101.613 75.0001C101.613 60.3269 89.6731 48.3872 74.9999 48.3872ZM74.9999 96.7743C62.9929 96.7743 53.2257 87.0047 53.2257 75.0001C53.2257 62.9955 62.9929 53.2259 74.9999 53.2259C87.0069 53.2259 96.7741 62.9955 96.7741 75.0001C96.7741 87.0047 87.0069 96.7743 74.9999 96.7743Z" fill="#A4CA85"/>
<path d="M147.581 0H130.645V4.83871H141.74L116.838 29.7411L120.259 33.1622L145.161 8.25983V19.3548H150V2.41935C150 1.08446 148.919 0 147.581 0Z" fill="#A4CA85"/>
<path d="M4.83871 8.25983L29.7411 33.1622L33.1622 29.7411L8.25983 4.83871H19.3548V0H2.41935C1.08091 0 0 1.08446 0 2.41935V19.3548H4.83871V8.25983Z" fill="#A4CA85"/>
<path d="M145.161 141.74L120.259 116.838L116.838 120.259L141.74 145.161H130.645V150H147.581C148.919 150 150 148.916 150 147.581V130.645H145.161V141.74Z" fill="#A4CA85"/>
<path d="M29.7411 116.838L4.83871 141.74V130.645H0V147.581C0 148.916 1.08091 150 2.41935 150H19.3548V145.161H8.25983L33.1622 120.259L29.7411 116.838Z" fill="#A4CA85"/>
</svg>
