<svg width="54" height="54" viewBox="0 0 54 54" fill="none" xmlns="http://www.w3.org/2000/svg">
<g clip-path="url(#clip0)">
<path d="M53 27C53 41.359 41.359 53 27 53C12.641 53 0.999998 41.359 0.999999 27C0.999999 12.641 12.641 0.999998 27 0.999999C41.359 0.999999 53 12.641 53 27Z" fill="#323C8D"/>
<path d="M-1.18021e-06 27C-5.29432e-07 12.112 12.112 -1.83098e-06 27 -1.18021e-06C41.888 -5.29432e-07 54 12.112 54 27C54 41.888 41.888 54 27 54C12.112 54 -1.83098e-06 41.888 -1.18021e-06 27ZM52 27C52 13.215 40.785 2 27 2C13.215 2 2 13.215 2 27C2 40.785 13.215 52 27 52C40.785 52 52 40.785 52 27Z" fill="#323C8D"/>
<path d="M14 31.706C14 31.45 14.098 31.194 14.293 30.999L25.791 19.501C26.458 18.834 27.542 18.834 28.209 19.501L39.707 30.999C40.098 31.39 40.098 32.022 39.707 32.413C39.316 32.804 38.684 32.804 38.293 32.413L27 21.12L15.707 32.413C15.316 32.804 14.684 32.804 14.293 32.413C14.098 32.218 14 31.962 14 31.706Z" fill="white"/>
</g>
<defs>
<clipPath id="clip0">
<rect width="54" height="54" fill="white" transform="translate(54) rotate(90)"/>
</clipPath>
</defs>
</svg>
