<svg width="20" height="14" viewBox="0 0 20 14" fill="none" xmlns="http://www.w3.org/2000/svg">
<path d="M18.03 14H2.01328C0.894786 14 0 13.1277 0 12.0374V1.96263C0 0.872274 0.894786 0 2.01328 0H17.9852C19.1037 0 19.9985 0.872274 19.9985 1.96263V12.0374C20.0432 13.1277 19.1037 14 18.03 14ZM2.01328 1.30843C1.65535 1.30843 1.3422 1.61374 1.3422 1.96263V12.0374C1.3422 12.3863 1.65539 12.6916 2.01328 12.6916H17.9852C18.3431 12.6916 18.6563 12.3863 18.6563 12.0374V1.96263C18.6563 1.6137 18.3431 1.30843 17.9852 1.30843H2.01328Z" fill="white"/>
<path d="M10.0216 9.421C9.84266 9.421 9.70844 9.37738 9.57426 9.24654L0.626344 1.52693C0.357895 1.30885 0.313154 0.872731 0.581603 0.611037C0.80531 0.349343 1.25268 0.305727 1.52113 0.567421L10.0216 7.89453L18.522 0.567421C18.7905 0.349343 19.2379 0.349343 19.4616 0.611037C19.6853 0.872731 19.6853 1.30885 19.4168 1.52693L10.469 9.24654C10.3348 9.33377 10.1559 9.421 10.0216 9.421Z" fill="white"/>
<path d="M0.805283 13.3894C0.626318 13.3894 0.447352 13.3021 0.31317 13.1713C0.0447215 12.9096 0.0894629 12.4735 0.357911 12.2554L6.7109 6.41117C6.97934 6.14948 7.42672 6.19309 7.65042 6.45479C7.91887 6.71648 7.87413 7.1526 7.60568 7.37068L1.2974 13.2149C1.16321 13.3021 0.984249 13.3894 0.805283 13.3894Z" fill="white"/>
<path d="M19.1931 13.3896C19.0141 13.3896 18.8799 13.346 18.7457 13.2151L12.3927 7.37091C12.1243 7.10922 12.1243 6.71672 12.348 6.45502C12.6164 6.19333 13.0191 6.19333 13.2875 6.41141L19.6405 12.2556C19.909 12.5173 19.909 12.9098 19.6853 13.1715C19.551 13.3024 19.3721 13.3896 19.1931 13.3896Z" fill="white"/>
</svg>
