<svg width="20" height="20" viewBox="0 0 20 20" fill="none" xmlns="http://www.w3.org/2000/svg">
<g clip-path="url(#clip0)">
<path d="M16.581 11.7578H12.1585L14.4617 8.08289C14.9915 7.24258 15.2716 6.27106 15.2716 5.27344C15.2716 2.36572 12.9059 0 9.99817 0C7.0903 0 4.72473 2.36572 4.72473 5.27344C4.72473 6.27106 5.00473 7.24258 5.53375 8.08151L7.83783 11.7578H3.41522L0 20H19.9962L16.581 11.7578ZM13.5757 16.4453H17.2548L18.2422 18.8281H13.8795L13.5757 16.4453ZM12.6981 18.8281H7.29233L7.5885 16.4453H12.3944L12.6981 18.8281ZM16.7693 15.2734H13.4264L13.1276 12.9297H15.798L16.7693 15.2734ZM5.89661 5.27344C5.89661 3.01178 7.73651 1.17188 9.99817 1.17188C12.2597 1.17188 14.0997 3.01178 14.0997 5.27344C14.0997 6.0495 13.8821 6.80481 13.4695 7.45911L9.99817 12.9982L6.52588 7.45789C6.1142 6.80481 5.89661 6.0495 5.89661 5.27344ZM9.99817 15.2049L11.4241 12.9297H11.9463L12.245 15.2734H7.73407L8.02551 12.9297H8.57224L9.99817 15.2049ZM4.19815 12.9297H6.84464L6.55319 15.2734H3.22693L4.19815 12.9297ZM2.74139 16.4453H6.40762L6.1113 18.8281H1.754L2.74139 16.4453Z" fill="white"/>
<path d="M12.9279 5.27344C12.9279 3.65799 11.6136 2.34375 9.99817 2.34375C8.38272 2.34375 7.06848 3.65799 7.06848 5.27344C7.06848 6.88889 8.38272 8.20312 9.99817 8.20312C11.6136 8.20312 12.9279 6.88889 12.9279 5.27344ZM8.24036 5.27344C8.24036 4.3042 9.02893 3.51562 9.99817 3.51562C10.9674 3.51562 11.756 4.3042 11.756 5.27344C11.756 6.24268 10.9674 7.03125 9.99817 7.03125C9.02893 7.03125 8.24036 6.24268 8.24036 5.27344Z" fill="white"/>
</g>
<defs>
<clipPath id="clip0">
<rect width="20" height="20" fill="white"/>
</clipPath>
</defs>
</svg>
