<svg width="150" height="150" viewBox="0 0 150 150" fill="none" xmlns="http://www.w3.org/2000/svg">
<g clip-path="url(#clip0)">
<path d="M94.1475 18.6902C77.648 10.3529 57.7727 13.5407 44.6913 26.6223C29.4877 41.8257 27.966 66.0677 41.152 83.0113C41.6181 83.6101 42.3148 83.9236 43.019 83.9236C43.5265 83.9236 44.0377 83.761 44.4692 83.425C45.4996 82.6231 45.6848 81.1381 44.8832 80.1077C33.1589 65.0426 34.5139 43.4859 48.0347 29.9651C59.6685 18.3307 77.3428 15.4954 92.0158 22.9095C93.1807 23.499 94.6028 23.0308 95.1916 21.8657C95.7802 20.7005 95.3132 19.2788 94.1475 18.6902Z" fill="#A4CA85"/>
<path d="M113.024 37.5701C112.435 36.405 111.014 35.9374 109.848 36.5257C108.682 37.1142 108.215 38.5357 108.803 39.7015C116.212 54.3722 113.375 72.0441 101.744 83.675C88.2229 97.1955 66.6665 98.5502 51.6015 86.8264C50.5708 86.0249 49.086 86.21 48.2842 87.2401C47.4823 88.2705 47.6678 89.7556 48.6981 90.5574C56.4161 96.5639 65.6479 99.5182 74.8503 99.5182C85.8505 99.5182 96.809 95.2962 105.087 87.0178C118.166 73.9396 121.355 54.0681 113.024 37.5701Z" fill="#A4CA85"/>
<path d="M106.916 28.5668C106.331 27.9041 105.715 27.2496 105.088 26.6221C104.46 25.9943 103.805 25.379 103.143 24.7934C102.165 23.9285 100.67 24.0211 99.8065 24.9993C98.9413 25.9773 99.0333 27.4711 100.012 28.3357C100.602 28.8572 101.185 29.4056 101.744 29.9649C102.303 30.5244 102.852 31.1072 103.374 31.6975C103.841 32.226 104.492 32.4958 105.146 32.4958C105.702 32.4958 106.261 32.3004 106.71 31.9032C107.689 31.0389 107.781 29.5451 106.916 28.5668Z" fill="#A4CA85"/>
<path d="M130.684 61.0578C132.26 58.4717 132.26 55.2596 130.683 52.6742L127.573 47.5744C127.164 46.9024 127.005 46.1043 127.128 45.3274L128.055 39.4378C128.527 36.4363 127.294 33.4618 124.837 31.6744L120.018 28.1687C119.38 27.705 118.927 27.0285 118.742 26.2627L117.338 20.4622C116.626 17.5158 114.353 15.2429 111.407 14.5299L105.606 13.1259C104.84 12.9405 104.163 12.4876 103.7 11.8504L100.193 7.02954C98.4064 4.5727 95.4316 3.33901 92.431 3.81186L86.5394 4.73882C85.7624 4.86098 84.9641 4.70278 84.2926 4.29321L79.192 1.18246C76.6062 -0.3943 73.3941 -0.394007 70.8084 1.18246L65.7084 4.29233C65.0369 4.70219 64.2391 4.85981 63.4613 4.73794L57.5714 3.81098C54.5708 3.33872 51.5957 4.57182 49.8086 7.02866L46.3029 11.8483C45.8392 12.4855 45.1624 12.9384 44.3963 13.1239L38.5958 14.5275C35.65 15.24 33.3766 17.5132 32.6635 20.4593L31.2596 26.26C31.0741 27.0259 30.6215 27.7029 29.984 28.1661L25.1632 31.6724C22.7063 33.4592 21.4735 36.4334 21.9455 39.4349L22.8724 45.3268C22.9946 46.104 22.8364 46.9021 22.4268 47.5736L19.3164 52.6745C17.7402 55.2602 17.7402 58.4723 19.3167 61.0578L22.4265 66.1578C22.8361 66.8298 22.9946 67.6279 22.8721 68.4049L21.9452 74.2947C21.4726 77.2959 22.7057 80.2707 25.1626 82.0578L29.9822 85.5635C30.6194 86.0267 31.0724 86.7037 31.2578 87.4695L32.6614 93.27C33.3739 96.2164 35.6471 98.4893 38.5932 99.2024L41.0154 99.7886L24.6226 136.355C24.2743 137.133 24.3707 138.037 24.8755 138.723C25.38 139.409 26.214 139.771 27.0601 139.669L40.2502 138.092L47.8487 148.988C48.2934 149.625 49.0191 150 49.7869 150C49.8605 150 49.9349 149.996 50.0087 149.989C50.8566 149.91 51.5963 149.38 51.9447 148.603L68.6864 111.256L70.8078 112.549C72.1007 113.338 73.55 113.732 74.9996 113.732C76.4492 113.732 77.8985 113.337 79.1914 112.549L81.3893 111.209L98.1521 148.603C98.5004 149.38 99.2399 149.91 100.088 149.989C100.162 149.997 100.236 150 100.31 150C101.078 150 101.804 149.626 102.248 148.988L109.847 138.093L123.037 139.67C123.882 139.77 124.717 139.409 125.221 138.723C125.726 138.037 125.823 137.133 125.474 136.356L109.073 99.7687L111.404 99.2047C114.35 98.4922 116.623 96.2191 117.336 93.273L118.74 87.4722C118.926 86.7064 119.379 86.0293 120.016 85.5661L124.837 82.0599C127.293 80.273 128.526 77.2988 128.054 74.2973L127.127 68.4054C127.005 67.6282 127.163 66.8301 127.573 66.1587L130.684 61.0578ZM49.3384 142.86L43.3167 134.225C42.8175 133.509 41.9638 133.126 41.0972 133.23L30.6443 134.48L45.5796 101.162C45.8527 101.363 46.0976 101.604 46.2994 101.882L49.8057 106.702C50.1388 107.16 50.5132 107.575 50.9213 107.945L43.0601 125.481C42.5263 126.673 43.0589 128.071 44.2501 128.605C44.5642 128.746 44.8926 128.813 45.2154 128.813C46.1184 128.813 46.9809 128.292 47.3737 127.415L55.2072 109.941C55.978 110.047 56.7716 110.045 57.5682 109.92L63.4598 108.993C63.8126 108.938 64.1691 108.943 64.5163 109L49.3384 142.86ZM119.453 134.479L109 133.23C108.132 133.126 107.28 133.509 106.78 134.225L100.759 142.86L85.5743 108.987C85.8928 108.944 86.2177 108.944 86.5391 108.994L92.4286 109.921C93.2574 110.051 94.0833 110.047 94.8834 109.928L102.723 127.416C103.116 128.293 103.978 128.813 104.881 128.813C105.204 128.813 105.533 128.747 105.846 128.606C107.038 128.072 107.57 126.673 107.036 125.482L99.1452 107.879C99.5258 107.526 99.8777 107.135 100.191 106.703L103.697 101.884C103.918 101.58 104.189 101.319 104.493 101.109L119.453 134.479ZM126.647 58.5962L123.536 63.6971C122.545 65.3243 122.161 67.2573 122.457 69.1399L123.384 75.0315C123.579 76.2705 123.07 77.4983 122.056 78.236L117.235 81.7426C115.692 82.8652 114.594 84.505 114.145 86.3598L112.741 92.1606C112.447 93.3767 111.509 94.3151 110.292 94.6095L104.492 96.0131C102.637 96.4619 100.997 97.5594 99.8739 99.1028L96.3682 103.922C95.6305 104.937 94.4029 105.446 93.1634 105.25L87.2735 104.323C85.3906 104.027 83.4573 104.41 81.8299 105.403L76.7302 108.513C75.6629 109.163 74.3363 109.163 73.2696 108.513L68.1687 105.402C66.9002 104.629 65.4459 104.226 63.9743 104.226C63.5583 104.226 63.1402 104.258 62.7256 104.323L56.8337 105.25C55.5945 105.445 54.3669 104.936 53.6292 103.922L50.1227 99.101C49 97.5579 47.3603 96.4605 45.5055 96.0116L39.7047 94.6077C38.4886 94.3133 37.5502 93.3752 37.2558 92.1588L35.8521 86.3583C35.4033 84.5032 34.3061 82.8629 32.7625 81.7402L27.9431 78.2343C26.9289 77.4966 26.42 76.2684 26.6151 75.0295L27.5421 69.1396C27.8383 67.2567 27.4551 65.3237 26.4628 63.6963L23.3529 58.596C22.7022 57.5287 22.7022 56.2024 23.3529 55.1354L26.4634 50.0345C27.4554 48.4074 27.8389 46.4743 27.5427 44.5917L26.6157 38.7001C26.4209 37.4611 26.9301 36.2333 27.944 35.4956L32.7651 31.9891C34.3082 30.8664 35.4057 29.2267 35.8545 27.3719L37.2584 21.5711C37.5528 20.355 38.4909 19.4166 39.7073 19.1221L45.5081 17.7185C47.3632 17.2697 49.0032 16.1722 50.1256 14.6289L53.6313 9.80923C54.369 8.79498 55.5965 8.2855 56.8361 8.48091L62.7259 9.40787C64.6091 9.70465 66.5424 9.32086 68.1696 8.32857L73.2693 5.2187C74.3366 4.56831 75.6632 4.56831 76.7299 5.2187L81.8308 8.32886C83.4579 9.32144 85.3915 9.70494 87.2738 9.40845L93.1657 8.4815C94.4044 8.28726 95.6325 8.79585 96.3702 9.80982L99.8768 14.6306C100.999 16.1737 102.639 17.2712 104.494 17.72L110.295 19.1239C111.511 19.4183 112.449 20.3564 112.744 21.5728L114.147 27.3733C114.596 29.2284 115.693 30.8687 117.237 31.9914L122.057 35.4971C123.071 36.2348 123.58 37.4629 123.385 38.7019L122.458 44.5917C122.161 46.4746 122.545 48.4076 123.537 50.0351L126.647 55.1354C127.298 56.2027 127.298 57.529 126.647 58.5962Z" fill="#A4CA85"/>
<path d="M102.661 49.511C102.14 47.9073 100.776 46.7875 99.1018 46.5889L84.8779 44.9023L78.8784 31.8959C78.1721 30.3648 76.6859 29.4136 74.9995 29.4136C73.3135 29.4136 71.827 30.3648 71.1206 31.8959L65.1212 44.9026L50.8972 46.5892C49.2226 46.7878 47.8585 47.9076 47.3379 49.5113C46.817 51.1141 47.2624 52.8218 48.4999 53.9664L59.016 63.6916L56.2246 77.7406C55.8962 79.3947 56.5395 81.0377 57.9039 82.0285C58.6565 82.5752 59.5299 82.852 60.4088 82.852C61.1233 82.852 61.8411 82.6692 62.5006 82.3001L74.9992 75.3043L87.4979 82.3001C88.9695 83.1239 90.7305 83.0199 92.0949 82.0288C93.4592 81.0377 94.1026 79.3944 93.7739 77.7406L90.9825 63.6919L101.499 53.9667C102.737 52.8221 103.182 51.1147 102.661 49.511ZM86.8015 61.1193C86.198 61.6774 85.9279 62.5091 86.0878 63.3154L88.9443 77.6917L76.1538 70.5324C75.7952 70.3317 75.3974 70.2312 74.9992 70.2312C74.6011 70.2312 74.2035 70.3314 73.8446 70.5324L61.0542 77.6917L63.9106 63.3154C64.0712 62.5088 63.8008 61.6774 63.197 61.1193L52.4356 51.1671L66.9921 49.4412C67.8083 49.3446 68.5158 48.8304 68.8603 48.0842L74.9995 34.7743L81.1387 48.0842C81.4832 48.8304 82.1904 49.3446 83.007 49.4412L97.5629 51.1671L86.8015 61.1193Z" fill="#A4CA85"/>
</g>
<defs>
<clipPath id="clip0">
<rect width="150" height="150" fill="white"/>
</clipPath>
</defs>
</svg>
