<svg width="71" height="71" viewBox="0 0 71 71" fill="none" xmlns="http://www.w3.org/2000/svg">
<g clip-path="url(#clip0)">
<path d="M66.2852 14.7648H63.509L63.5117 9.80183C63.5133 6.46991 60.8044 3.75768 57.4719 3.75606L36.4025 3.74414C36.4014 3.74414 36.4008 3.74414 36.3997 3.74414C35.2004 3.74414 34.0727 4.21107 33.2244 5.05936L1.76969 36.514C0.628357 37.6554 0 39.1726 0 40.7869C0 42.4011 0.628357 43.9184 1.76969 45.0597L22.1826 65.4726C23.3608 66.6508 24.9084 67.2396 26.4555 67.2396C28.0031 67.2396 29.5507 66.6508 30.7288 65.4726L50.5329 45.6685C51.0746 45.1269 51.0746 44.2488 50.5329 43.7076C49.9912 43.166 49.1131 43.166 48.5714 43.7076L28.7674 63.5117C27.4928 64.7863 25.4187 64.7863 24.1441 63.5117L3.73114 43.0988C3.11362 42.4813 2.77344 41.6601 2.77344 40.7869C2.77344 39.9137 3.11362 39.0925 3.73114 38.4749L35.1853 7.02081C35.5098 6.69633 35.9409 6.51758 36.3997 6.51758H36.4008L57.4703 6.5295C59.273 6.53004 60.7394 7.99801 60.7383 9.80074L60.7318 21.421H54.4856C53.9477 21.421 53.4607 21.2011 53.1086 20.8468C53.6888 20.5982 54.2326 20.2391 54.7055 19.7662C56.6984 17.7728 56.6984 14.5302 54.7055 12.5373C52.7121 10.5439 49.4696 10.5439 47.4762 12.5373C45.4833 14.5302 45.4833 17.7728 47.4762 19.7662C48.215 20.505 49.1261 20.9692 50.0811 21.1605C50.7599 22.9323 52.4776 24.1945 54.4856 24.1945H60.7302L60.7264 30.842C60.7264 31.3008 60.5476 31.7315 60.2231 32.0554L56.4162 35.8629C55.8745 36.4046 55.8745 37.2827 56.4162 37.8244C56.9573 38.3655 57.8354 38.3655 58.3771 37.8244L62.1846 34.0169C63.0318 33.1691 63.4993 32.0424 63.4998 30.8437L63.5036 24.1945H66.2852C68.8847 24.1945 71 22.0797 71 19.4796C71 16.8801 68.8847 14.7648 66.2852 14.7648ZM49.4376 14.4983C49.8937 14.0422 50.4923 13.8146 51.0914 13.8146C51.6899 13.8146 52.2885 14.0427 52.7446 14.4983C52.8887 14.6429 53.0079 14.8027 53.1065 14.9711C51.5843 15.4375 50.3883 16.6558 49.9511 18.1909C49.7675 18.0886 49.5936 17.9613 49.4376 17.8053C48.5259 16.8931 48.5259 15.4099 49.4376 14.4983ZM66.2852 21.421H63.5052L63.5074 17.5382H66.2852C67.3555 17.5382 68.2266 18.4092 68.2266 19.4796C68.2266 20.55 67.3555 21.421 66.2852 21.421Z" fill="white"/>
<path d="M22.3836 38.7317C22.5543 39.3454 23.1117 39.7468 23.7183 39.7468C23.8418 39.7468 23.967 39.7306 24.091 39.6959L38.3265 35.7334C39.0643 35.5281 39.496 34.7633 39.2907 34.0255C39.0854 33.2883 38.3211 32.8565 37.5828 33.0618L23.3473 37.0237C22.61 37.2296 22.1783 37.9939 22.3836 38.7317Z" fill="white"/>
<path d="M28.6498 40.5614C27.8774 41.3338 27.4521 42.3603 27.4521 43.4529C27.4521 44.5449 27.8774 45.5714 28.6498 46.3439C29.4472 47.1407 30.4937 47.5394 31.5408 47.5394C32.5879 47.5394 33.635 47.1407 34.4323 46.3439C36.0265 44.7497 36.0265 42.1555 34.4323 40.5614C32.8381 38.9672 30.244 38.9672 28.6498 40.5614ZM32.4709 44.3824C31.9579 44.8954 31.1237 44.8954 30.6107 44.3824C30.3621 44.1343 30.2256 43.8039 30.2256 43.4523C30.2256 43.1013 30.3626 42.7709 30.6107 42.5223C30.8675 42.2661 31.2044 42.1377 31.5408 42.1377C31.8777 42.1377 32.2147 42.2661 32.4709 42.5223C32.9839 43.0352 32.9839 43.87 32.4709 44.3824Z" fill="white"/>
<path d="M35.1193 32.3054C36.7134 30.7106 36.7134 28.117 35.1193 26.5229C34.3468 25.7504 33.3198 25.3252 32.2277 25.3252C31.1357 25.3252 30.1087 25.7504 29.3368 26.5229C27.7426 28.117 27.7426 30.7106 29.3368 32.3054C30.1341 33.1022 31.1807 33.5009 32.2277 33.5009C33.2748 33.5009 34.3219 33.1022 35.1193 32.3054ZM31.2977 28.4838C31.5463 28.2351 31.8767 28.0986 32.2277 28.0986C32.5793 28.0986 32.9097 28.2351 33.1578 28.4838C33.6708 28.9967 33.6708 29.8309 33.1578 30.3439C32.6454 30.8569 31.8106 30.8569 31.2977 30.3439C30.7852 29.8309 30.7852 28.9967 31.2977 28.4838Z" fill="white"/>
<path d="M13.7924 35.8663C13.2508 35.3246 12.3727 35.3246 11.831 35.8663L7.89076 39.8065C7.63075 40.0665 7.4845 40.4192 7.4845 40.787C7.4845 41.1548 7.63075 41.5074 7.89076 41.7674L25.4755 59.3522C25.7458 59.6225 26.1012 59.7579 26.456 59.7579C26.8108 59.7579 27.1656 59.6225 27.4365 59.3522L53.7278 33.0604C54.2695 32.5187 54.2695 31.6406 53.7278 31.0989L36.1435 13.5147C35.8835 13.2547 35.5309 13.1084 35.1631 13.1084C34.7953 13.1084 34.4426 13.2547 34.1826 13.5147L19.6757 28.0216C19.134 28.5633 19.134 29.4413 19.6757 29.983C20.2168 30.5242 21.0949 30.5242 21.6366 29.983L35.1631 16.4566L50.7864 32.0799L26.456 56.4103L10.8327 40.787L13.7924 37.8272C14.3336 37.2855 14.3341 36.408 13.7924 35.8663Z" fill="white"/>
<path d="M53.4749 39.3789C53.1098 39.3789 52.7522 39.5273 52.4944 39.7852C52.2366 40.043 52.0881 40.4011 52.0881 40.7656C52.0881 41.1302 52.2366 41.4882 52.4944 41.7461C52.7522 42.0039 53.1098 42.1523 53.4749 42.1523C53.8394 42.1523 54.1969 42.0039 54.4553 41.7461C54.7132 41.4882 54.8616 41.1302 54.8616 40.7656C54.8616 40.4011 54.7132 40.043 54.4553 39.7852C54.1969 39.5273 53.8394 39.3789 53.4749 39.3789Z" fill="white"/>
<path d="M17.7137 33.9043C17.9731 33.6464 18.1205 33.29 18.1205 32.9238C18.1205 32.5593 17.9731 32.2028 17.7137 31.9434C17.4558 31.6855 17.0994 31.5371 16.7338 31.5371C16.3687 31.5371 16.0112 31.6855 15.7533 31.9434C15.4949 32.2012 15.347 32.5593 15.347 32.9238C15.347 33.29 15.4949 33.6464 15.7533 33.9043C16.0122 34.1637 16.3687 34.3105 16.7338 34.3105C17.0994 34.3105 17.4558 34.1637 17.7137 33.9043Z" fill="white"/>
</g>
<defs>
<clipPath id="clip0">
<rect width="71" height="71" fill="white"/>
</clipPath>
</defs>
</svg>
