<svg width="150" height="150" viewBox="0 0 150 150" fill="none" xmlns="http://www.w3.org/2000/svg">
<path d="M75 11.7217C73.3775 11.7217 72.0732 13.0283 72.0732 14.6484C72.0732 16.1563 73.2076 17.4111 74.707 17.56C76.4429 17.7322 77.9268 16.3802 77.9268 14.6484C77.9268 13.026 76.6201 11.7217 75 11.7217Z" fill="#A4CA85"/>
<path d="M133.594 17.5781C125.517 17.5781 118.945 11.0068 118.945 2.92969C118.945 1.31191 117.633 0 116.016 0H33.9844C32.3666 0 31.0547 1.31191 31.0547 2.92969C31.0547 11.0068 24.4834 17.5781 16.4062 17.5781C14.7885 17.5781 13.4766 18.89 13.4766 20.5078V68.3174C13.4766 105.576 37.7622 138.962 74.1586 149.877C74.4331 149.959 74.7164 150 75 150C75.2836 150 75.5675 149.959 75.8417 149.876C111.45 139.195 136.523 106.391 136.523 68.3174V20.5078C136.523 18.89 135.212 17.5781 133.594 17.5781ZM130.664 68.3174C130.664 103.312 108.334 133.618 75 144.007C41.932 133.701 19.3359 103.12 19.3359 68.3174V23.2289C28.304 21.9404 35.417 14.8274 36.7055 5.85938H113.295C114.583 14.8274 121.696 21.9404 130.664 23.2289V68.3174Z" fill="#A4CA85"/>
<path d="M123.05 27.0967C116.941 24.421 112.102 19.5826 109.427 13.473C108.96 12.4072 107.907 11.7188 106.743 11.7188H86.7129C85.0951 11.7188 83.7832 13.0307 83.7832 14.6484C83.7832 16.2662 85.0951 17.5781 86.7129 17.5781H104.891C107.986 23.637 112.886 28.5372 118.945 31.6327V68.3174C118.945 96.9882 101.734 121.726 75 131.629C48.2663 121.726 31.0547 96.9882 31.0547 68.3174V31.6327C37.1136 28.5372 42.0138 23.637 45.1093 17.5781H63.2871C64.9049 17.5781 66.2168 16.2662 66.2168 14.6484C66.2168 13.0307 64.9049 11.7188 63.2871 11.7188H43.2568C42.0932 11.7188 41.0402 12.4075 40.5732 13.473C37.8976 19.5826 33.0592 24.421 26.9496 27.0967C25.8841 27.5637 25.1953 28.6169 25.1953 29.7803V68.3174C25.1953 99.7274 44.6224 127.102 74.0227 137.507C74.3388 137.619 74.6692 137.675 75 137.675C75.3308 137.675 75.6612 137.619 75.9773 137.507C105.353 127.111 124.805 99.7529 124.805 68.3174V29.7803C124.805 28.6166 124.116 27.5637 123.05 27.0967Z" fill="#A4CA85"/>
<path d="M75 42.7734C60.4611 42.7734 48.6328 54.6018 48.6328 69.1406C48.6328 83.6795 60.4611 95.5078 75 95.5078C89.5389 95.5078 101.367 83.6795 101.367 69.1406C101.367 54.6018 89.5389 42.7734 75 42.7734ZM75 89.6484C63.692 89.6484 54.4922 80.4486 54.4922 69.1406C54.4922 57.8326 63.692 48.6328 75 48.6328C86.308 48.6328 95.5078 57.8326 95.5078 69.1406C95.5078 80.4486 86.308 89.6484 75 89.6484Z" fill="#A4CA85"/>
<path d="M88.7903 61.2094C87.646 60.0656 85.7915 60.0656 84.6469 61.2094L72.0703 73.7862L68.2825 69.9987C67.1382 68.855 65.2837 68.855 64.139 69.9987C62.995 71.1428 62.995 72.9979 64.139 74.1422L69.9984 80.0016C70.5709 80.5731 71.3203 80.8594 72.0703 80.8594C72.8203 80.8594 73.5697 80.5731 74.1419 80.0013L88.7903 65.3528C89.9344 64.2088 89.9344 62.3537 88.7903 61.2094Z" fill="#A4CA85"/>
</svg>
