<svg width="20" height="20" viewBox="0 0 20 20" fill="none" xmlns="http://www.w3.org/2000/svg">
<g clip-path="url(#clip0)">
<path d="M15.2051 13.3102C14.5517 12.6652 13.736 12.6652 13.0867 13.3102C12.5915 13.8013 12.0962 14.2924 11.6093 14.7919C11.4761 14.9292 11.3638 14.9583 11.2014 14.8668C10.881 14.692 10.5397 14.5505 10.2317 14.359C8.79592 13.4559 7.59315 12.2948 6.52773 10.988C5.99918 10.3387 5.52889 9.64369 5.20011 8.86127C5.13352 8.70312 5.14601 8.59908 5.27502 8.47006C5.77028 7.99145 6.25305 7.50036 6.73998 7.00926C7.41836 6.32673 7.41836 5.52766 6.73582 4.84096C6.34877 4.44975 5.96172 4.06686 5.57467 3.67565C5.17514 3.27612 4.77977 2.87242 4.37607 2.47705C3.72267 1.84029 2.90695 1.84029 2.25771 2.48121C1.75829 2.9723 1.27968 3.47588 0.771944 3.95865C0.301659 4.40397 0.0644358 4.94917 0.014494 5.58592C-0.0645804 6.62221 0.18929 7.60024 0.547206 8.5533C1.27968 10.526 2.39505 12.2781 3.74764 13.8846C5.57467 16.057 7.75546 17.7759 10.3067 19.0161C11.4553 19.5738 12.6456 20.0024 13.9399 20.0732C14.8305 20.1231 15.6046 19.8984 16.2247 19.2034C16.6493 18.7289 17.1279 18.2961 17.5773 17.8425C18.2432 17.1682 18.2474 16.3525 17.5857 15.6866C16.7949 14.8917 16 14.101 15.2051 13.3102Z" fill="white"/>
<path d="M14.4105 9.91321L15.9462 9.65102C15.7048 8.24016 15.0389 6.96249 14.0276 5.94701C12.958 4.87742 11.6054 4.20321 10.1155 3.99512L9.89905 5.53915C11.0519 5.70146 12.1006 6.22169 12.9288 7.04989C13.7113 7.83231 14.2232 8.82282 14.4105 9.91321Z" fill="white"/>
<path d="M16.8117 3.23789C15.0388 1.46496 12.7956 0.34543 10.3193 0L10.1029 1.54403C12.2421 1.84368 14.1815 2.81338 15.713 4.34077C17.1655 5.79324 18.1186 7.6286 18.464 9.64708L19.9997 9.38488C19.596 7.04595 18.4931 4.92342 16.8117 3.23789Z" fill="white"/>
</g>
<defs>
<clipPath id="clip0">
<rect width="20" height="20" fill="white"/>
</clipPath>
</defs>
</svg>
