<svg height="512" viewBox="0 0 60 60" width="512" xmlns="http://www.w3.org/2000/svg"><g id="Page-1" fill="none" fill-rule="evenodd"><g id="005---Home" fill-rule="nonzero" transform="translate(-1)"><path id="Shape" d="m53 25.62v27.38c0 3.3137085-2.6862915 6-6 6h-32c-3.3137085 0-6-2.6862915-6-6v-27l-.18-.23 22.18-17.91z" fill="#e8edfc"/><path id="Shape" d="m31 7.86-1.5 1.211 20.5 16.549v27.38c0 3.3137085-2.6862915 6-6 6h3c3.3137085 0 6-2.6862915 6-6v-27.38z" fill="#cad9fc"/><path id="Shape" d="m59.33 26.89c-.4992912.6175819-1.2238311 1.0110755-2.0136946 1.0936266-.7898635.082551-1.5801079-.1526279-2.1963054-.6536266l-2.12-1.71-22-17.76-22.18 17.91-1.93 1.56c-1.28682347 1.0438181-3.17618179.8468234-4.21999995-.44-1.04381816-1.2868235-.84682348-3.1761818.43999995-4.22l26-21c1.1027728-.89018258 2.6772272-.89018258 3.78 0l25.99 21c.6213373.4985407 1.0182097 1.2242799 1.1026784 2.0164087s-.1504411 1.5852381-.6526784 2.2035913z" fill="#a4c2f7"/><path id="Shape" d="m58.88 22.67-25.99-21c-.9668673-.78075068-2.3150143-.88454607-3.39-.261.1366609.07660937.2670654.16388008.39.261l25.99 21c.6213373.4985407 1.0182097 1.2242799 1.1026784 2.0164087s-.1504411 1.5852381-.6526784 2.2035913c-.233561.2813495-.5178054.5164109-.838.693 1.3520553.7929069 3.0868708.4079805 3.9766885-.8823602.8898178-1.2903408.6330046-3.0486923-.5886885-4.0306398z" fill="#7facfa"/><path id="Shape" d="m25 37h12c1.1045695 0 2 .8954305 2 2v20h-16v-20c0-1.1045695.8954305-2 2-2z" fill="#a4c2f7"/><path id="Shape" d="m37 37h-3c1.1045695 0 2 .8954305 2 2v20h3v-20c0-1.1045695-.8954305-2-2-2z" fill="#7facfa"/><path id="Shape" d="m11.82 25.77-1.93 1.56c-.26434261.2108623-.56304723.3745917-.883.484.02 2.719-.007 9.257-.007 25.186 0 3.3137085 2.6862915 6 6 6h3c-3.3137085 0-6-2.6862915-6-6 0-29.118.09-26.884-.18-27.23z" fill="#fff"/><path id="Shape" d="m6.5 27.588c-.85930939-.4880914-1.42074998-1.370441-1.49887378-2.3556021-.0781238-.9851612.33723256-1.9449713 1.10887378-2.5623979 21.823-17.626 25.49-20.648 26.39-21.257-.7824662-.44513026-1.7215718-.52198613-2.566-.21-.684.262 1.013-1.017-26.824 21.467-1.18516004.9944169-1.41976558 2.7270054-.54173759 4.0007935s2.58071106 1.6709947 3.93173759.9172065z" fill="#fff"/><path id="Rectangle-path" d="m8 45h2v8h-2z" fill="#fff"/><g fill="#428dff"><circle id="Oval" cx="9" cy="49" r="1"/><path id="Shape" d="m7.514 28.112.486-.393v17.281c0 .5522847.44771525 1 1 1s1-.4477153 1-1v-18.9l21-16.958 21 16.958v26.9c-.0033061 2.7600532-2.2399468 4.9966939-5 5h-7v-19c0-1.6568542-1.3431458-3-3-3h-12c-1.6568542 0-3 1.3431458-3 3v19h-7c-2.7600532-.0033061-4.9966939-2.2399468-5-5 0-.5522847-.44771525-1-1-1s-1 .4477153-1 1c.00440864 3.8641657 3.1358343 6.9955914 7 7h32c3.8641657-.0044086 6.9955914-3.1358343 7-7v-25.281l.486.393c1.7187101 1.3881677 4.2373323 1.1202101 5.6255-.5985s1.1202101-4.2373323-.5985-5.6255l-26-21c-1.4696688-1.17504693-3.5573312-1.17504693-5.027 0l-26 21c-1.71871014 1.3884439-1.98644386 3.9072899-.598 5.626s3.90728986 1.9864439 5.626.598zm16.486 29.888v-19c0-.5522847.4477153-1 1-1h12c.5522847 0 1 .4477153 1 1v19zm-20.257-34.556 26-21c.7349936-.58760309 1.7790064-.58760309 2.514 0l26 21c.4128948.3331869.6764802.8167818.7327443 1.3443517.0562641.5275698-.0994042 1.0558772-.4327443 1.4686483-.7060973.8370434-1.9462543.9693033-2.813.3l-24.116-19.478c-.3664487-.29571555-.8895513-.29571555-1.256 0l-24.115 19.477c-.55590526.4490829-1.30916576.5674806-1.97603556.310594-.6668698-.2568867-1.1460355-.8500305-1.25700002-1.556-.11096452-.7059696.16313029-1.4175112.71903558-1.866594z"/><path id="Shape" d="m48 53c0 .5522847.4477153 1 1 1s1-.4477153 1-1v-1c0-.5522847-.4477153-1-1-1s-1 .4477153-1 1z"/><path id="Shape" d="m49 49c.5522847 0 1-.4477153 1-1v-16c0-.5522847-.4477153-1-1-1s-1 .4477153-1 1v16c0 .5522847.4477153 1 1 1z"/><path id="Shape" d="m35 43c-.5522847 0-1 .4477153-1 1v3c0 .5522847.4477153 1 1 1s1-.4477153 1-1v-3c0-.5522847-.4477153-1-1-1z"/><path id="Shape" d="m35 50c-.5522847 0-1 .4477153-1 1v1c0 .5522847.4477153 1 1 1s1-.4477153 1-1v-1c0-.5522847-.4477153-1-1-1z"/><path id="Shape" d="m32 16c.5522847 0 1-.4477153 1-1s-.4477153-1-1-1h-2c-.5522847 0-1 .4477153-1 1s.4477153 1 1 1z"/><path id="Shape" d="m26 19c0 .5522847.4477153 1 1 1h8c.5522847 0 1-.4477153 1-1s-.4477153-1-1-1h-8c-.5522847 0-1 .4477153-1 1z"/></g></g></g></svg>