<svg width="150" height="150" fill="none" xmlns="http://www.w3.org/2000/svg"><path d="M109.917 96.23a40.527 40.527 0 004.85-11.746h8.427a2.419 2.419 0 002.419-2.42V67.548a2.419 2.419 0 00-2.419-2.419h-8.427a40.527 40.527 0 00-4.85-11.746l5.949-5.949a2.416 2.416 0 000-3.421L105.6 33.747c-.91-.907-2.516-.907-3.421 0l-5.95 5.95a40.538 40.538 0 00-11.743-4.851v-8.427A2.418 2.418 0 0082.066 24H67.552a2.42 2.42 0 00-2.42 2.42v8.426a40.548 40.548 0 00-11.743 4.85l-5.95-5.949a2.413 2.413 0 00-1.71-.709c-.644 0-1.258.254-1.71.71L33.752 44.012a2.417 2.417 0 000 3.421l5.95 5.95a40.5 40.5 0 00-4.852 11.745h-8.43a2.419 2.419 0 00-2.42 2.42v14.515c0 1.335 1.08 2.42 2.42 2.42h8.426a40.55 40.55 0 004.85 11.746l-5.949 5.949a2.417 2.417 0 000 3.421l10.266 10.266c.907.907 2.514.907 3.421 0l5.95-5.949a40.54 40.54 0 0011.743 4.85v8.427a2.419 2.419 0 002.419 2.419h14.516a2.42 2.42 0 002.42-2.419v-8.427a40.569 40.569 0 0011.743-4.85l5.949 5.949a2.413 2.413 0 001.711.709c.644 0 1.258-.254 1.71-.709l10.266-10.266a2.416 2.416 0 000-3.421l-5.944-5.95zm-6.027 14.504l-5.618-5.621a2.427 2.427 0 00-3.072-.289 35.915 35.915 0 01-13.586 5.612 2.418 2.418 0 00-1.969 2.376v7.962h-9.677v-7.962A2.419 2.419 0 0068 110.436a35.923 35.923 0 01-13.585-5.612 2.424 2.424 0 00-3.073.289l-5.617 5.621-6.845-6.844 5.62-5.62a2.417 2.417 0 00.288-3.073 35.88 35.88 0 01-5.61-13.585 2.422 2.422 0 00-2.378-1.967h-7.962v-9.677H36.8c1.161 0 2.16-.827 2.375-1.967a35.918 35.918 0 015.61-13.585 2.417 2.417 0 00-.287-3.073l-5.62-5.62 6.844-6.844 5.618 5.62c.823.823 2.112.94 3.072.29A35.91 35.91 0 0168 39.176a2.418 2.418 0 001.969-2.375v-7.962h9.677V36.8c0 1.161.827 2.16 1.967 2.375a35.917 35.917 0 0113.585 5.613c.96.653 2.252.535 3.073-.29l5.617-5.62 6.845 6.844-5.621 5.62a2.417 2.417 0 00-.287 3.073A35.881 35.881 0 01110.434 68a2.422 2.422 0 002.378 1.967h7.962v9.677h-7.962a2.419 2.419 0 00-2.376 1.967 35.913 35.913 0 01-5.61 13.585 2.418 2.418 0 00.287 3.073l5.621 5.62-6.844 6.844z" fill="#A4CA85"/><path d="M75 48.387c-14.673 0-26.613 11.94-26.613 26.613S60.327 101.613 75 101.613 101.613 89.673 101.613 75 89.673 48.387 75 48.387zm0 48.387c-12.007 0-21.774-9.77-21.774-21.774 0-12.005 9.767-21.774 21.774-21.774 12.007 0 21.774 9.77 21.774 21.774 0 12.005-9.767 21.774-21.774 21.774zM147.581 0h-16.936v4.839h11.095L116.838 29.74l3.421 3.421L145.161 8.26v11.095H150V2.419A2.419 2.419 0 00147.581 0zM4.839 8.26L29.74 33.162l3.421-3.42L8.26 4.838h11.095V0H2.419A2.419 2.419 0 000 2.42v16.935h4.839V8.26zm140.322 133.48l-24.902-24.902-3.421 3.421 24.902 24.902h-11.095V150h16.936a2.418 2.418 0 002.419-2.419v-16.936h-4.839v11.095zm-115.42-24.902L4.84 141.74v-11.095H0v16.936A2.418 2.418 0 002.42 150h16.935v-4.839H8.26l24.902-24.902-3.42-3.421z" fill="#A4CA85"/></svg>