<svg width="54" height="54" fill="none" xmlns="http://www.w3.org/2000/svg"><g clip-path="url(#clip0)"><path d="M53 27c0 14.359-11.641 26-26 26S1 41.359 1 27 12.641 1 27 1s26 11.641 26 26z" fill="#323C8D"/><path d="M0 27C0 12.112 12.112 0 27 0s27 12.112 27 27-12.112 27-27 27S0 41.888 0 27zm52 0C52 13.215 40.785 2 27 2S2 13.215 2 27s11.215 25 25 25 25-11.215 25-25z" fill="#323C8D"/><path d="M14 31.706c0-.256.098-.512.293-.707l11.498-11.498a1.711 1.711 0 012.418 0l11.498 11.498a.999.999 0 11-1.414 1.414L27 21.12 15.707 32.413A.999.999 0 0114 31.706z" fill="#fff"/></g><defs><clipPath id="clip0"><path fill="#fff" transform="rotate(90 27 27)" d="M0 0h54v54H0z"/></clipPath></defs></svg>