<svg width="20" height="14" fill="none" xmlns="http://www.w3.org/2000/svg"><path d="M18.03 14H2.013C.895 14 0 13.128 0 12.037V1.963C0 .873.895 0 2.013 0h15.972C19.104 0 20 .872 20 1.963v10.074c.044 1.09-.895 1.963-1.969 1.963zM2.013 1.308c-.358 0-.67.306-.67.655v10.074c0 .35.312.655.67.655h15.972c.358 0 .671-.306.671-.655V1.963c0-.35-.313-.655-.67-.655H2.012z" fill="#fff"/><path d="M10.022 9.421a.582.582 0 01-.448-.174L.626 1.527A.621.621 0 01.582.61a.66.66 0 01.94-.044l8.5 7.328 8.5-7.328c.269-.218.716-.218.94.044.223.262.223.698-.045.916l-8.948 7.72c-.134.087-.313.174-.447.174z" fill="#fff"/><path d="M.805 13.39a.727.727 0 01-.492-.219.621.621 0 01.045-.916L6.71 6.411a.66.66 0 01.94.044.621.621 0 01-.045.916l-6.309 5.844c-.134.087-.313.174-.492.174zm18.388 0a.582.582 0 01-.447-.175l-6.353-5.844a.662.662 0 01-.045-.916.705.705 0 01.94-.044l6.352 5.845a.662.662 0 01.045.915.727.727 0 01-.492.219z" fill="#fff"/></svg>