<svg width="150" height="150" fill="none" xmlns="http://www.w3.org/2000/svg"><g clip-path="url(#clip0)" fill="#A4CA85"><path d="M94.147 18.69a42.623 42.623 0 00-49.456 7.932c-15.203 15.204-16.725 39.446-3.539 56.39a2.36 2.36 0 003.317.413 2.364 2.364 0 00.414-3.317c-11.724-15.065-10.37-36.622 3.152-50.143a37.904 37.904 0 0143.98-7.055 2.363 2.363 0 102.132-4.22zm18.877 18.88a2.365 2.365 0 00-4.221 2.132 37.906 37.906 0 01-7.059 43.973c-13.521 13.52-35.078 14.875-50.142 3.151a2.364 2.364 0 00-2.904 3.731c7.718 6.007 16.95 8.961 26.152 8.961 11 0 21.959-4.222 30.237-12.5a42.625 42.625 0 007.937-49.448zm-6.108-9.003a43.41 43.41 0 00-3.773-3.774 2.363 2.363 0 10-3.131 3.543 38.651 38.651 0 013.362 3.362 2.358 2.358 0 001.772.798 2.362 2.362 0 001.77-3.929z"/><path d="M130.684 61.058a8.022 8.022 0 00-.001-8.384l-3.11-5.1a3.327 3.327 0 01-.445-2.247l.927-5.89a8.02 8.02 0 00-3.218-7.763l-4.819-3.505a3.323 3.323 0 01-1.276-1.906l-1.404-5.8a8.018 8.018 0 00-5.931-5.933l-5.801-1.404a3.325 3.325 0 01-1.906-1.276l-3.507-4.82a8.016 8.016 0 00-7.762-3.218l-5.892.927a3.328 3.328 0 01-2.246-.446l-5.101-3.11a8.021 8.021 0 00-8.384 0l-5.1 3.11a3.325 3.325 0 01-2.247.445l-5.89-.927c-3-.472-5.975.76-7.762 3.218l-3.506 4.82a3.329 3.329 0 01-1.907 1.275l-5.8 1.403a8.02 8.02 0 00-5.932 5.932L31.26 26.26a3.325 3.325 0 01-1.276 1.906l-4.82 3.506a8.017 8.017 0 00-3.219 7.763l.927 5.892a3.327 3.327 0 01-.445 2.247l-3.11 5.1a8.022 8.022 0 000 8.384l3.11 5.1c.41.672.568 1.47.445 2.247l-.927 5.89a8.018 8.018 0 003.218 7.763l4.82 3.505a3.326 3.326 0 011.275 1.906l1.403 5.801a8.02 8.02 0 005.932 5.932l2.422.587-16.392 36.566a2.364 2.364 0 002.437 3.314l13.19-1.577 7.599 10.896a2.365 2.365 0 004.096-.385l16.741-37.347 2.122 1.293A8.035 8.035 0 0075 113.732a8.04 8.04 0 004.191-1.183l2.198-1.34 16.763 37.394a2.362 2.362 0 004.096.385l7.599-10.895 13.19 1.577a2.365 2.365 0 002.437-3.314l-16.401-36.587 2.331-.564a8.02 8.02 0 005.932-5.932l1.404-5.8a3.331 3.331 0 011.276-1.907l4.821-3.506a8.019 8.019 0 003.217-7.763l-.927-5.892a3.326 3.326 0 01.446-2.246l3.111-5.101zM49.338 142.86l-6.021-8.635a2.363 2.363 0 00-2.22-.995l-10.453 1.25 14.936-33.318c.273.201.518.442.72.72l3.506 4.82c.333.458.707.873 1.115 1.243l-7.86 17.536a2.364 2.364 0 004.313 1.934l7.833-17.474a8.095 8.095 0 002.361-.021l5.892-.927c.353-.055.71-.05 1.056.007l-15.178 33.86zm70.115-8.381L109 133.23a2.363 2.363 0 00-2.22.995l-6.021 8.635-15.185-33.873c.319-.043.644-.043.965.007l5.89.927a8.11 8.11 0 002.454.007l7.84 17.488a2.363 2.363 0 104.313-1.934l-7.89-17.603a8.05 8.05 0 001.045-1.176l3.506-4.819c.221-.304.492-.565.796-.775l14.96 33.37zm7.194-75.883l-3.111 5.101a8.068 8.068 0 00-1.079 5.443l.927 5.891a3.31 3.31 0 01-1.328 3.205l-4.821 3.507a8.063 8.063 0 00-3.09 4.617l-1.404 5.8a3.31 3.31 0 01-2.449 2.45l-5.8 1.403a8.062 8.062 0 00-4.618 3.09l-3.506 4.819a3.306 3.306 0 01-3.205 1.328l-5.89-.927a8.059 8.059 0 00-5.443 1.08l-5.1 3.11a3.314 3.314 0 01-3.46 0l-5.101-3.111a8.065 8.065 0 00-5.443-1.079l-5.892.927a3.31 3.31 0 01-3.205-1.328l-3.506-4.821a8.061 8.061 0 00-4.617-3.09l-5.801-1.403a3.311 3.311 0 01-2.45-2.45l-1.403-5.8a8.06 8.06 0 00-3.09-4.618l-4.819-3.506a3.31 3.31 0 01-1.328-3.204l.927-5.89a8.06 8.06 0 00-1.08-5.444l-3.11-5.1a3.311 3.311 0 010-3.46l3.111-5.102a8.06 8.06 0 001.08-5.442l-.927-5.892a3.31 3.31 0 011.328-3.204l4.821-3.507a8.06 8.06 0 003.09-4.617l1.403-5.8a3.311 3.311 0 012.45-2.45l5.8-1.404a8.059 8.059 0 004.618-3.09L53.63 9.81a3.309 3.309 0 013.205-1.328l5.89.927a8.058 8.058 0 005.444-1.08l5.1-3.11a3.313 3.313 0 013.46 0l5.1 3.11a8.057 8.057 0 005.444 1.08l5.892-.926A3.312 3.312 0 0196.37 9.81l3.507 4.82a8.058 8.058 0 004.617 3.09l5.801 1.404a3.312 3.312 0 012.449 2.449l1.403 5.8a8.06 8.06 0 003.09 4.618l4.82 3.506a3.31 3.31 0 011.328 3.205l-.927 5.89a8.058 8.058 0 001.079 5.443l3.11 5.1a3.31 3.31 0 010 3.461z"/><path d="M102.661 49.511a4.23 4.23 0 00-3.56-2.922l-14.223-1.687-6-13.006A4.23 4.23 0 0075 29.414a4.23 4.23 0 00-3.878 2.482l-6 13.007-14.224 1.686a4.229 4.229 0 00-3.56 2.922 4.23 4.23 0 001.163 4.455l10.516 9.726-2.791 14.049a4.229 4.229 0 001.679 4.287 4.251 4.251 0 002.505.824 4.28 4.28 0 002.092-.552L75 75.304 87.498 82.3a4.229 4.229 0 004.597-.271 4.23 4.23 0 001.679-4.288l-2.791-14.05 10.516-9.724a4.229 4.229 0 001.162-4.456zm-15.86 11.608a2.365 2.365 0 00-.713 2.196l2.856 14.377-12.79-7.16a2.362 2.362 0 00-2.31 0l-12.79 7.16 2.857-14.377a2.362 2.362 0 00-.714-2.196l-10.761-9.952 14.556-1.726a2.364 2.364 0 001.868-1.357L75 34.774l6.139 13.31a2.364 2.364 0 001.868 1.357l14.556 1.726-10.761 9.952z"/></g><defs><clipPath id="clip0"><path fill="#fff" d="M0 0h150v150H0z"/></clipPath></defs></svg>