<svg width="20" height="20" fill="none" xmlns="http://www.w3.org/2000/svg"><g clip-path="url(#clip0)" fill="#fff"><path d="M16.581 11.758h-4.422l2.303-3.675c.53-.84.81-1.812.81-2.81A5.28 5.28 0 009.998 0a5.28 5.28 0 00-5.273 5.273c0 .998.28 1.97.809 2.809l2.304 3.676H3.415L0 20h19.996l-3.415-8.242zm-3.005 4.687h3.679l.987 2.383H13.88l-.303-2.383zm-.878 2.383H7.292l.296-2.383h4.806l.304 2.383zm4.071-3.555h-3.343l-.298-2.343h2.67l.971 2.343zm-10.872-10a4.106 4.106 0 014.101-4.101A4.106 4.106 0 0114.1 5.273a4.09 4.09 0 01-.63 2.186L9.998 13 6.526 7.457a4.09 4.09 0 01-.63-2.185zm4.101 9.932l1.426-2.275h.522l.299 2.343h-4.51l.29-2.343h.547l1.426 2.275zm-5.8-2.275h2.647l-.292 2.343H3.227l.971-2.343zm-1.457 3.515h3.667l-.297 2.383H1.754l.987-2.383z"/><path d="M12.928 5.273a2.933 2.933 0 00-2.93-2.93 2.933 2.933 0 00-2.93 2.93 2.933 2.933 0 002.93 2.93 2.933 2.933 0 002.93-2.93zm-4.688 0a1.759 1.759 0 013.516 0 1.76 1.76 0 01-1.758 1.758A1.76 1.76 0 018.24 5.273z"/></g><defs><clipPath id="clip0"><path fill="#fff" d="M0 0h20v20H0z"/></clipPath></defs></svg>