<svg width="71" height="71" fill="none" xmlns="http://www.w3.org/2000/svg"><g clip-path="url(#clip0)" fill="#fff"><path d="M66.285 14.765H63.51l.003-4.963a6.05 6.05 0 00-6.04-6.046l-21.07-.012H36.4c-1.2 0-2.327.467-3.176 1.315L1.77 36.514A6.003 6.003 0 000 40.787c0 1.614.628 3.131 1.77 4.273l20.413 20.413a6.024 6.024 0 004.273 1.767 6.024 6.024 0 004.273-1.767l19.804-19.804a1.386 1.386 0 10-1.962-1.961L28.767 63.512a3.273 3.273 0 01-4.623 0L3.731 43.099a3.248 3.248 0 01-.958-2.312c0-.873.34-1.694.958-2.312L35.185 7.02a1.706 1.706 0 011.215-.503l21.07.011A3.273 3.273 0 0160.738 9.8l-.006 11.62h-6.246c-.538 0-1.025-.22-1.377-.574a5.085 5.085 0 001.596-1.08 5.118 5.118 0 000-7.23 5.117 5.117 0 00-7.229 0 5.118 5.118 0 000 7.23 5.085 5.085 0 002.605 1.393 4.723 4.723 0 004.405 3.035h6.244l-.004 6.647c0 .459-.178.89-.503 1.213l-3.807 3.808a1.387 1.387 0 001.961 1.961l3.808-3.807a4.463 4.463 0 001.315-3.173l.004-6.65h2.781A4.72 4.72 0 0071 19.48a4.72 4.72 0 00-4.715-4.715zm-16.847-.267a2.33 2.33 0 011.653-.683 2.332 2.332 0 012.015 1.156 4.734 4.734 0 00-3.155 3.22 2.32 2.32 0 01-.513-.386 2.341 2.341 0 010-3.307zm16.847 6.923h-2.78l.002-3.883h2.778c1.07 0 1.942.871 1.942 1.942 0 1.07-.871 1.941-1.942 1.941z"/><path d="M22.384 38.732a1.387 1.387 0 001.707.964l14.236-3.963a1.387 1.387 0 00-.744-2.671l-14.236 3.962a1.387 1.387 0 00-.963 1.708zm6.266 1.829a4.062 4.062 0 00-1.198 2.892c0 1.092.425 2.118 1.198 2.89a4.077 4.077 0 002.89 1.196 4.078 4.078 0 002.892-1.195 4.094 4.094 0 000-5.783 4.094 4.094 0 00-5.782 0zm3.82 3.821a1.317 1.317 0 01-2.244-.93 1.314 1.314 0 012.245-.93 1.316 1.316 0 010 1.86zm2.65-12.077a4.094 4.094 0 000-5.782 4.063 4.063 0 00-2.892-1.198 4.06 4.06 0 00-2.891 1.198 4.094 4.094 0 000 5.782 4.077 4.077 0 002.89 1.196 4.078 4.078 0 002.892-1.196zm-3.822-3.821c.248-.249.579-.385.93-.385a1.316 1.316 0 11-.93 2.245 1.317 1.317 0 010-1.86z"/><path d="M13.792 35.866a1.387 1.387 0 00-1.961 0l-3.94 3.94a1.387 1.387 0 000 1.961l17.584 17.585a1.384 1.384 0 001.961 0L53.728 33.06a1.387 1.387 0 000-1.961L36.144 13.515a1.387 1.387 0 00-1.961 0L19.676 28.022a1.387 1.387 0 001.96 1.961l13.527-13.526L50.786 32.08l-24.33 24.33-15.623-15.623 2.96-2.96a1.387 1.387 0 000-1.96zm39.683 3.513c-.365 0-.723.148-.98.406a1.398 1.398 0 00-.407.98c0 .365.149.723.406.981.258.258.616.406.98.406.365 0 .723-.148.981-.406s.407-.616.407-.98c0-.365-.149-.723-.407-.98a1.399 1.399 0 00-.98-.407z"/><path d="M17.714 33.904a1.389 1.389 0 000-1.96 1.395 1.395 0 00-.98-.407c-.365 0-.723.149-.98.406a1.395 1.395 0 00-.407.98c0 .367.148.723.406.981a1.388 1.388 0 001.96 0z"/></g><defs><clipPath id="clip0"><path fill="#fff" d="M0 0h71v71H0z"/></clipPath></defs></svg>