<svg width="150" height="150" fill="none" xmlns="http://www.w3.org/2000/svg"><path d="M75 11.722a2.92 2.92 0 00-2.927 2.926 2.918 2.918 0 002.634 2.912 2.921 2.921 0 003.22-2.912A2.92 2.92 0 0075 11.722z" fill="#A4CA85"/><path d="M133.594 17.578c-8.077 0-14.649-6.571-14.649-14.648A2.93 2.93 0 00116.016 0H33.984a2.93 2.93 0 00-2.93 2.93c0 8.077-6.57 14.648-14.648 14.648a2.93 2.93 0 00-2.93 2.93v47.81c0 37.258 24.286 70.644 60.683 81.559a2.939 2.939 0 001.683-.001c35.608-10.681 60.681-43.485 60.681-81.559v-47.81a2.93 2.93 0 00-2.929-2.929zm-2.93 50.74c0 34.994-22.33 65.3-55.664 75.689-33.068-10.306-55.664-40.887-55.664-75.69V23.23c8.968-1.289 16.081-8.402 17.37-17.37h76.589c1.288 8.968 8.401 16.081 17.369 17.37v45.088z" fill="#A4CA85"/><path d="M123.05 27.097a26.389 26.389 0 01-13.623-13.624 2.93 2.93 0 00-2.684-1.754h-20.03a2.93 2.93 0 000 5.86h18.178a32.204 32.204 0 0014.054 14.054v36.684c0 28.671-17.211 53.409-43.945 63.312-26.734-9.903-43.945-34.64-43.945-63.312V31.633a32.208 32.208 0 0014.054-14.055h18.178a2.93 2.93 0 000-5.86h-20.03a2.93 2.93 0 00-2.684 1.755A26.39 26.39 0 0126.95 27.097a2.93 2.93 0 00-1.755 2.683v38.537c0 31.41 19.427 58.785 48.828 69.19a2.925 2.925 0 001.954 0c29.376-10.396 48.828-37.754 48.828-69.19V29.78a2.93 2.93 0 00-1.755-2.683z" fill="#A4CA85"/><path d="M75 42.773c-14.539 0-26.367 11.829-26.367 26.368 0 14.538 11.828 26.367 26.367 26.367 14.539 0 26.367-11.828 26.367-26.367 0-14.54-11.828-26.368-26.367-26.368zm0 46.875c-11.308 0-20.508-9.2-20.508-20.507 0-11.308 9.2-20.508 20.508-20.508s20.508 9.2 20.508 20.508S86.308 89.648 75 89.648z" fill="#A4CA85"/><path d="M88.79 61.21a2.93 2.93 0 00-4.143 0L72.07 73.785 68.283 70a2.93 2.93 0 00-4.144 4.143l5.86 5.86a2.924 2.924 0 002.071.857c.75 0 1.5-.286 2.072-.858L88.79 65.353a2.93 2.93 0 000-4.144z" fill="#A4CA85"/></svg>