<svg width="20" height="20" fill="none" xmlns="http://www.w3.org/2000/svg"><g clip-path="url(#clip0)" fill="#fff"><path d="M15.205 13.31c-.653-.645-1.469-.645-2.118 0-.495.491-.99.982-1.478 1.482-.133.137-.245.166-.408.075-.32-.175-.661-.317-.97-.508-1.435-.903-2.638-2.064-3.703-3.371-.529-.65-1-1.344-1.328-2.127-.066-.158-.054-.262.075-.39.495-.48.978-.97 1.465-1.462.678-.682.678-1.481-.004-2.168-.387-.391-.774-.774-1.161-1.165-.4-.4-.795-.804-1.199-1.199-.653-.637-1.47-.637-2.118.004-.5.491-.978.995-1.486 1.478-.47.445-.708.99-.758 1.627C-.065 6.622.19 7.6.547 8.553c.733 1.973 1.848 3.725 3.2 5.332a19.805 19.805 0 006.56 5.131c1.148.558 2.339.986 3.633 1.057.89.05 1.665-.175 2.285-.87.424-.474.903-.907 1.352-1.36.666-.675.67-1.49.009-2.156-.791-.795-1.586-1.586-2.38-2.377zm-.795-3.397l1.536-.262a6.864 6.864 0 00-1.918-3.704 6.827 6.827 0 00-3.912-1.952L9.899 5.54a5.296 5.296 0 013.03 1.51 5.296 5.296 0 011.482 2.864zm2.402-6.675A11.323 11.323 0 0010.319 0l-.216 1.544c2.14.3 4.079 1.27 5.61 2.797a9.81 9.81 0 012.751 5.306L20 9.385a11.407 11.407 0 00-3.188-6.147z"/></g><defs><clipPath id="clip0"><path fill="#fff" d="M0 0h20v20H0z"/></clipPath></defs></svg>